mtllib model.mtl
o corner-guard
v 0.3923492 0.4995990 0.4900609
v 0.3886730 0.4989512 0.4944509
v 0.4997498 0.4986842 0.4932921
v 0.4997498 0.4986842 0.4932921
v 0.3886730 0.4989512 0.4944509
v 0.4037173 0.4999868 0.3284304
v 0.3886730 0.4989512 0.4944509
v 0.3923492 0.4995990 0.4900609
v 0.4037173 0.4999868 0.3284304
v 0.4997498 0.4986842 0.4932921
v 0.4037173 0.4999868 0.3284304
v 0.3923492 0.4995990 0.4900609
v 0.4997498 0.4986842 0.4932921
v 0.4912654 0.4990747 -0.4988046
v 0.3886730 0.4989512 0.4944509
v 0.3832631 0.4993589 -0.3470686
v 0.3778532 0.4818604 -0.3549574
v 0.3886730 0.4989512 0.4944509
v 0.3783894 0.4392850 -0.3550836
v 0.4912654 0.4990747 -0.4988046
v 0.3832631 0.4993589 -0.3470686
v 0.3886730 0.4989512 0.4944509
v 0.3982001 0.4999380 -0.1650626
v 0.3895668 0.4999385 -0.3674813
v 0.3832631 0.4993589 -0.3470686
v 0.4912654 0.4990747 -0.4988046
v 0.3895668 0.4999385 -0.3674813
v 0.3982001 0.4999380 -0.1650626
v 0.4912654 0.4990747 -0.4988046
v 0.3982001 0.4999380 -0.1650626
v 0.3832631 0.4993589 -0.3470686
v 0.3732357 0.4972496 -0.3549202
v 0.3832631 0.4993589 -0.3470686
v 0.3806237 0.4996301 -0.3585600
v 0.3806237 0.4996301 -0.3585600
v 0.3832631 0.4993589 -0.3470686
v 0.3895668 0.4999385 -0.3674813
v 0.3806237 0.4996301 -0.3585600
v 0.3895668 0.4999385 -0.3674813
v 0.4912654 0.4990747 -0.4988046
v 0.4912654 0.4990747 -0.4988046
v 0.2836796 0.4999133 -0.3671322
v 0.3806237 0.4996301 -0.3585600
v 0.3778532 0.4818604 -0.3549574
v 0.3732357 0.4972496 -0.3549202
v 0.2836796 0.4999133 -0.3671322
v 0.3806237 0.4996301 -0.3585600
v 0.3832631 0.4993589 -0.3470686
v 0.4912654 0.4990747 -0.4988046
v -0.5000000 0.4991330 -0.4815266
v 0.2836796 0.4999133 -0.3671322
v 0.3778532 0.4818604 -0.3549574
v 0.2836796 0.4999133 -0.3671322
v -0.4966575 0.4985649 -0.3598080
v 0.3783894 0.4392850 -0.3550836
v 0.3778532 0.4818604 -0.3549574
v -0.5000000 0.4991330 -0.4815266
v -0.5000000 0.4991330 -0.4815266
v -0.4966575 0.4985649 -0.3598080
v -0.4852538 0.5000000 -0.4246265
v -0.4852538 0.5000000 -0.4246265
v 0.2836796 0.4999133 -0.3671322
v -0.5000000 0.4991330 -0.4815266
v -0.4966575 0.4985649 -0.3598080
v -0.5000000 0.4991330 -0.4815266
v 0.3778532 0.4818604 -0.3549574
v -0.4966575 0.4985649 -0.3598080
v 0.3886730 0.4989512 0.4944509
v 0.3859324 0.3827654 -0.3441344
v 0.4850929 0.2798880 0.5000000
v 0.3783894 0.4392850 -0.3550836
v 0.4997498 0.4986842 0.4932921
v 0.3886730 0.4989512 0.4944509
v 0.4850929 0.2798880 0.5000000
v 0.4912654 0.4990747 -0.4988046
v 0.4997498 0.4986842 0.4932921
v 0.4850929 0.2798880 0.5000000
v 0.3844309 0.3574452 -0.3498615
v 0.3859324 0.3827654 -0.3441344
v -0.5000000 0.4991330 -0.4815266
v 0.3803496 0.3256226 -0.3542664
v 0.3783894 0.4392850 -0.3550836
v 0.3847646 0.3825899 -0.3505449
v 0.3859324 0.3827654 -0.3441344
v 0.3843296 0.3902876 -0.3495941
v -0.4966575 0.1300300 -0.4946073
v 0.3782047 0.2853498 -0.3550686
v -0.5000000 0.4991330 -0.4815266
v 0.3803496 0.3256226 -0.3542664
v -0.5000000 0.4991330 -0.4815266
v 0.4912654 0.4990747 -0.4988046
v 0.4936785 -0.0442475 -0.5000000
v 0.3859324 0.3827654 -0.3441344
v 0.3844309 0.3574452 -0.3498615
v 0.4850929 0.2798880 0.5000000
v 0.4850929 0.2798880 0.5000000
v 0.3782047 0.2853498 -0.3550686
v 0.3802841 0.2127280 -0.3541919
v 0.3844309 0.3574452 -0.3498615
v 0.3803496 0.3256226 -0.3542664
v 0.3782047 0.2853498 -0.3550686
v -0.4966575 0.1300300 -0.4946073
v 0.3802841 0.2127280 -0.3541919
v -0.4966575 0.1300300 -0.4946073
v -0.5000000 0.4991330 -0.4815266
v 0.4936785 -0.0442475 -0.5000000
v 0.4850929 0.2798880 0.5000000
v 0.3802841 0.2127280 -0.3541919
v 0.3849731 0.0953972 -0.3507600
v 0.3848420 0.0459543 -0.3506040
v 0.4936785 -0.0442475 -0.5000000
v 0.4912654 0.4990747 -0.4988046
v 0.4850929 0.2798880 0.5000000
v -0.4960856 0.0216897 -0.3603274
v 0.3802841 0.2127280 -0.3541919
v -0.4966575 0.1300300 -0.4946073
v -0.4963060 -0.0489285 -0.3604091
v 0.3051347 0.0479059 -0.3540878
v 0.3849731 0.0953972 -0.3507600
v 0.3848420 0.0459543 -0.3506040
v 0.3842700 0.0038749 -0.3494600
v 0.4850929 0.2798880 0.5000000
v 0.3848420 0.0459543 -0.3506040
v 0.3823158 -0.0459022 -0.3544220
v 0.3802841 0.2127280 -0.3541919
v -0.4892100 -0.0913620 -0.4999553
v -0.4960856 0.0216897 -0.3603274
v -0.4966575 0.1300300 -0.4946073
v 0.3802841 0.2127280 -0.3541919
v -0.4960856 0.0216897 -0.3603274
v -0.4963060 -0.0489285 -0.3604091
v 0.3051347 0.0479059 -0.3540878
v 0.3842700 0.0038749 -0.3494600
v 0.3848420 0.0459543 -0.3506040
v 0.3823158 -0.0459022 -0.3544220
v -0.4892100 -0.0913620 -0.4999553
v -0.4963060 -0.0489285 -0.3604091
v -0.4960856 0.0216897 -0.3603274
v -0.4966575 0.1300300 -0.4946073
v 0.4936785 -0.0442475 -0.5000000
v -0.4892100 -0.0913620 -0.4999553
v -0.4963060 -0.0489285 -0.3604091
v 0.3823158 -0.0459022 -0.3544220
v 0.3051347 0.0479059 -0.3540878
v 0.3823158 -0.0459022 -0.3544220
v 0.3864984 -0.2671241 0.4900394
v 0.4850929 0.2798880 0.5000000
v 0.4850929 0.2798880 0.5000000
v 0.3864984 -0.2671241 0.4900394
v 0.4936785 -0.0442475 -0.5000000
v 0.2877728 -0.1054223 -0.3541396
v 0.3823158 -0.0459022 -0.3544220
v -0.4963060 -0.0489285 -0.3604091
v -0.4985939 -0.1355407 -0.3658093
v 0.3848540 -0.1100476 -0.3508044
v 0.3848659 -0.1220601 -0.3504849
v -0.4892100 -0.0913620 -0.4999553
v -0.4985939 -0.1355407 -0.3658093
v -0.4963060 -0.0489285 -0.3604091
v 0.2877728 -0.1054223 -0.3541396
v -0.4963060 -0.0489285 -0.3604091
v -0.4985939 -0.1355407 -0.3658093
v -0.4964967 -0.1214789 -0.4945550
v -0.4964967 -0.1214789 -0.4945550
v -0.4892100 -0.0913620 -0.4999553
v 0.4936785 -0.0442475 -0.5000000
v -0.4964967 -0.1214789 -0.4945550
v 0.4936785 -0.0442475 -0.5000000
v -0.4966873 -0.3131267 -0.4945771
v 0.3848659 -0.1220601 -0.3504849
v -0.4985939 -0.1355407 -0.3658093
v 0.3848182 -0.2496282 -0.3508042
v 0.3823158 -0.0459022 -0.3544220
v 0.3848540 -0.1100476 -0.3508044
v 0.3864984 -0.2671241 0.4900394
v 0.3848659 -0.1220601 -0.3504849
v 0.3848182 -0.2496282 -0.3508042
v 0.3864984 -0.2671241 0.4900394
v 0.4994578 -0.3807412 0.4930257
v 0.4936785 -0.0442475 -0.5000000
v -0.4964967 -0.1214789 -0.4945550
v -0.4962881 -0.3116033 -0.3606242
v -0.4985939 -0.1355407 -0.3658093
v -0.4966873 -0.3131267 -0.4945771
v -0.4962881 -0.3116033 -0.3606242
v 0.3848182 -0.2496282 -0.3508042
v -0.4985939 -0.1355407 -0.3658093
v 0.3736706 -0.2799736 -0.3552388
v 0.3822920 -0.2757997 -0.3544217
v 0.3844368 -0.2730031 -0.3496602
v 0.3848182 -0.2496282 -0.3508042
v 0.3858489 -0.2784203 -0.3441559
v 0.3864984 -0.2671241 0.4900394
v 0.3736706 -0.2799736 -0.3552388
v 0.3858489 -0.2784203 -0.3441559
v 0.3848182 -0.2496282 -0.3508042
v 0.3736706 -0.2799736 -0.3552388
v 0.3844368 -0.2730031 -0.3496602
v 0.3858489 -0.2784203 -0.3441559
v 0.3780617 -0.3290030 -0.3550085
v 0.3822920 -0.2757997 -0.3544217
v 0.3844368 -0.2730031 -0.3496602
v 0.3858489 -0.2784203 -0.3441559
v 0.3848182 -0.2496282 -0.3508042
v -0.4962881 -0.3116033 -0.3606242
v 0.3736706 -0.2799736 -0.3552388
v 0.3780617 -0.3290030 -0.3550085
v 0.3736706 -0.2799736 -0.3552388
v 0.3780617 -0.3290030 -0.3550085
v 0.3858489 -0.2784203 -0.3441559
v 0.4936785 -0.0442475 -0.5000000
v 0.4915217 -0.4990436 -0.4991453
v -0.4966873 -0.3131267 -0.4945771
v 0.4936785 -0.0442475 -0.5000000
v 0.4994578 -0.3807412 0.4930257
v 0.4915217 -0.4990436 -0.4991453
v 0.3988555 -0.4990358 0.4983964
v 0.3864984 -0.2671241 0.4900394
v 0.3780617 -0.3290030 -0.3550085
v 0.3988555 -0.4990358 0.4983964
v 0.4994578 -0.3807412 0.4930257
v 0.3864984 -0.2671241 0.4900394
v -0.4962881 -0.3116033 -0.3606242
v 0.3848182 -0.3892088 -0.3506406
v 0.3848241 -0.3745274 -0.3507966
v 0.3848301 -0.4056301 -0.3506852
v 0.3783596 -0.4310375 -0.3550752
v 0.3806237 -0.3645770 -0.3542953
v 0.3780617 -0.3290030 -0.3550085
v 0.3783596 -0.4310375 -0.3550752
v -0.4962881 -0.3116033 -0.3606242
v 0.3869452 -0.4998366 -0.3588635
v 0.3783596 -0.4310375 -0.3550752
v 0.3988555 -0.4990358 0.4983964
v 0.3848301 -0.4056301 -0.3506852
v 0.3848182 -0.3892088 -0.3506406
v 0.3806237 -0.3645770 -0.3542953
v 0.3848241 -0.3745274 -0.3507966
v 0.3780617 -0.3290030 -0.3550085
v 0.3988555 -0.4990358 0.4983964
v 0.4911761 -0.4990257 0.4979284
v 0.4994578 -0.3807412 0.4930257
v 0.4994578 -0.3807412 0.4930257
v 0.5000000 -0.4993142 0.3103587
v 0.4915217 -0.4990436 -0.4991453
v 0.4911761 -0.4990257 0.4979284
v 0.3869452 -0.4998366 -0.3588635
v 0.3988555 -0.4990358 0.4983964
v 0.3783596 -0.4310375 -0.3550752
v 0.3869452 -0.4998366 -0.3588635
v 0.5000000 -0.4993142 0.3103587
v 0.3988555 -0.4990358 0.4983964
v 0.4911761 -0.4990257 0.4979284
v 0.3988555 -0.4990358 0.4983964
v 0.4943756 -0.4998135 0.4870758
v 0.4915217 -0.4990436 -0.4991453
v 0.4943756 -0.4998135 0.4870758
v 0.4943756 -0.4998135 0.4870758
v 0.5000000 -0.4993142 0.3103587
v 0.4911761 -0.4990257 0.4979284
v -0.4964788 -0.4294533 -0.4944507
v -0.4895197 -0.4982922 -0.3548523
v -0.4966873 -0.3131267 -0.4945771
v -0.4962881 -0.3116033 -0.3606242
v -0.4895197 -0.4982922 -0.3548523
v 0.3869452 -0.4998366 -0.3588635
v -0.4962881 -0.3116033 -0.3606242
v -0.4964788 -0.4294533 -0.4944507
v -0.4966873 -0.3131267 -0.4945771
v 0.4915217 -0.4990436 -0.4991453
v -0.4642217 -0.4691501 -0.4928536
v -0.4964788 -0.4294533 -0.4944507
v 0.4915217 -0.4990436 -0.4991453
v -0.4886558 -0.4997782 -0.4924301
v -0.4651988 -0.4872376 -0.4965157
v 0.3869452 -0.4998366 -0.3588635
v -0.4895197 -0.4982922 -0.3548523
v -0.4855755 -0.5000000 -0.3739799
v 0.4915217 -0.4990436 -0.4991453
v -0.4855755 -0.5000000 -0.3739799
v -0.4886558 -0.4997782 -0.4924301
v 0.3869452 -0.4998366 -0.3588635
v -0.4895197 -0.4982922 -0.3548523
v -0.4964788 -0.4294533 -0.4944507
v -0.4919089 -0.4774532 -0.4612837
v -0.4642217 -0.4691501 -0.4928536
v -0.4651988 -0.4872376 -0.4965157
v -0.4919089 -0.4774532 -0.4612837
v -0.4964788 -0.4294533 -0.4944507
v -0.4957817 -0.4993783 -0.3674209
v -0.4839966 -0.4998013 -0.3620503
v -0.4895197 -0.4982922 -0.3548523
v -0.4957817 -0.4993783 -0.3674209
v -0.4855755 -0.5000000 -0.3739799
v -0.4839966 -0.4998013 -0.3620503
v -0.4247375 -0.4997908 -0.3622657
v -0.4247375 -0.4997908 -0.3622657
v -0.4855755 -0.5000000 -0.3739799
v -0.4895197 -0.4982922 -0.3548523
v -0.4247375 -0.4997908 -0.3622657
v -0.4958770 -0.4994020 -0.4891320
v -0.4886558 -0.4997782 -0.4924301
v -0.4855755 -0.5000000 -0.3739799
v -0.4957817 -0.4993783 -0.3674209
v -0.4919089 -0.4774532 -0.4612837
v -0.4651988 -0.4872376 -0.4965157
v -0.4886558 -0.4997782 -0.4924301
v -0.4919089 -0.4774532 -0.4612837
v -0.4958770 -0.4994020 -0.4891320
v -0.4957817 -0.4993783 -0.3674209
v -0.4895197 -0.4982922 -0.3548523
v -0.4958770 -0.4994020 -0.4891320
vt 0.9971820 0.3040890
vt 0.9998380 0.3031230
vt 0.9979480 0.3382090
vt 0.0076230 0.4134520
vt 0.0360490 0.4341050
vt 0.0071700 0.4653360
vt 0.9999820 0.3009490
vt 0.9975340 0.2995360
vt 0.9996000 0.2584150
vt 0.4628460 0.7989450
vt 0.4628460 0.8508310
vt 0.4358130 0.8197760
vt 0.0953130 0.0050830
vt 0.0953130 0.2567160
vt 0.0601760 0.0051690
vt 0.4805910 0.6467500
vt 0.4211990 0.6035990
vt 0.6323190 0.4486300
vt 0.2802490 0.4941350
vt 0.6360120 0.0747050
vt 0.6655280 0.1168590
vt 0.6392550 0.3286730
vt 0.9789900 0.3780450
vt 0.9789900 0.5310460
vt 0.9698420 0.5159750
vt 0.3673170 0.4469650
vt 0.4924710 0.3886040
vt 0.6341740 0.4463090
vt 0.4419240 0.4112260
vt 0.1750660 0.4112260
vt 0.3003490 0.3528080
vt 0.0357030 0.4320940
vt 0.0095030 0.4130580
vt 0.0170830 0.4034750
vt 0.0489010 0.5078310
vt 0.0559090 0.4978230
vt 0.0559180 0.5205580
vt 0.9929740 0.2489490
vt 0.9979450 0.2626060
vt 0.9916230 0.4405690
vt 0.6352100 0.0751560
vt 0.6352100 0.3580290
vt 0.5744270 0.2568840
vt 0.2792510 0.0785510
vt 0.3525850 0.2804610
vt 0.2630060 0.3556270
vt 0.3729830 0.3084400
vt 0.3768350 0.3026110
vt 0.7570180 0.3881910
vt 0.7570180 0.6401250
vt 0.7308110 0.4413160
vt 0.0540250 0.6908820
vt 0.0070780 0.6580090
vt 0.0464890 0.4636140
vt 0.4701540 0.0427610
vt 0.5874710 0.0786280
vt 0.5696540 0.3079600
vt 0.0497690 0.5398790
vt 0.0497690 0.5117860
vt 0.0550490 0.5268590
vt 0.9151040 0.4775080
vt 0.9834120 0.2672770
vt 0.9260430 0.4863240
vt 0.8993500 0.4748790
vt 0.3721170 0.4476330
vt 0.6318570 0.4476330
vt 0.3765890 0.4753680
vt 0.6970590 0.1104850
vt 0.7658000 0.2437270
vt 0.6972610 0.3624410
vt 0.7664280 0.1787620
vt 0.7627020 0.3310680
vt 0.7739230 0.3300860
vt 0.7792750 0.5819860
vt 0.1073110 0.4778560
vt 0.1281880 0.3999390
vt 0.3715770 0.4631580
vt 0.4008210 0.3563080
vt 0.4342750 0.3410600
vt 0.6351640 0.3764820
vt 0.3588750 0.3756890
vt 0.5096390 0.3085660
vt 0.9998430 0.3366850
vt 0.9991640 0.3364380
vt 0.9996270 0.3255110
vt 0.3476180 0.8583300
vt 0.2760950 0.8213190
vt 0.2470170 0.7199110
vt 0.2650380 0.8062750
vt 0.1288460 0.6232700
vt 0.1323790 0.5828900
vt 0.3833250 0.6045770
vt 0.0314070 0.4602380
vt 0.0381410 0.4698550
vt 0.0349290 0.5154200
vt 0.1633100 0.5412410
vt 0.0567590 0.5508800
vt 0.0567590 0.4244670
vt 0.0576950 0.6763780
vt 0.0569940 0.6209830
vt 0.0227290 0.4622180
vt 0.0227290 0.5427500
vt 0.0075740 0.4922820
vt 0.2907920 0.5429260
vt 0.4418780 0.6232590
vt 0.2004470 0.5406750
vt 0.0077060 0.5162530
vt 0.0271180 0.5536120
vt 0.0130390 0.6061530
vt 0.0071600 0.6283070
vt 0.0571360 0.3748230
vt 0.0571360 0.1229420
vt 0.0899090 0.2245500
vt 0.9665920 0.6647260
vt 0.9665920 0.8226070
vt 0.9345510 0.7416370
vt 0.9307670 0.5504920
vt 0.9604050 0.6374260
vt 0.9547380 0.6737690
vt 0.9659940 0.6376010
vt 0.1525810 0.4880350
vt 0.3688900 0.4785480
vt 0.1843290 0.4936330
vt 0.1149650 0.4817590
vt 0.9276970 0.7594930
vt 0.9797580 0.3742700
vt 0.9879520 0.4679230
vt 0.9800870 0.5576720
vt 0.9896800 0.4749030
vt 0.9748000 0.3048330
vt 0.9919160 0.2488930
vt 0.0284470 0.5220670
vt 0.0313590 0.4852500
vt 0.0341300 0.5199980
vt 0.0279670 0.4441530
vt 0.0524060 0.6107440
vt 0.0558900 0.6305040
vt 0.0541210 0.6629770
vt 0.5774180 0.8230320
vt 0.5664780 0.7339280
vt 0.6113660 0.7268940
vt 0.4200950 0.8696040
vt 0.3991030 0.8407110
vt 0.4349760 0.8164370
vt 0.7539750 0.3918580
vt 0.6965020 0.4803590
vt 0.7734440 0.2404550
vt 0.7743960 0.2331510
vt 0.6965430 0.4727610
vt 0.6973550 0.3650890
vt 0.9700540 0.0820560
vt 0.9999960 0.2482820
vt 0.7820560 0.2482820
vt 0.7719870 0.0050710
vt 0.9935990 0.0681270
vt 0.9922880 0.0343940
vt 0.8663760 0.3694360
vt 0.8986520 0.2489800
vt 0.8878470 0.4877310
vt 0.8641330 0.8701680
vt 0.6177350 0.8701680
vt 0.7684980 0.6847250
vt 0.8716020 0.2864730
vt 0.3653280 0.0427640
vt 0.4290080 0.0961970
vt 0.3805360 0.3640920
vt 0.9191070 0.5005650
vt 0.9627460 0.4249810
vt 0.9646480 0.6366180
vt 0.4830240 0.7500740
vt 0.5393300 0.7317790
vt 0.5275900 0.8345400
vt 0.9052470 0.6525870
vt 0.8964850 0.6053720
vt 0.9183200 0.4815410
vt 0.8948260 0.5965330
vt 0.8770110 0.5027080
vt 0.3958160 0.6245690
vt 0.4782900 0.6466680
vt 0.2211630 0.6361940
vt 0.3612110 0.6435260
vt 0.6105070 0.6649690
vt 0.3792510 0.6561570
vt 0.6129570 0.6525940
vt 0.4657590 0.7956030
vt 0.3549580 0.8648390
vt 0.2476040 0.7183700
vt 0.0013320 0.5767510
vt 0.0001580 0.5633360
vt 0.0007600 0.5543970
vt 0.3013800 0.0335900
vt 0.2597490 0.1149470
vt 0.1074620 0.0001900
vt 0.0281660 0.5499080
vt 0.0239950 0.5449360
vt 0.0260180 0.4535700
vt 0.0489290 0.5054680
vt 0.0489290 0.4831060
vt 0.0524120 0.4999920
vt 0.1911450 0.2601180
vt 0.0001180 0.5454820
vt 0.0016170 0.5543150
vt 0.0023660 0.5370910
vt 0.2674430 0.8692530
vt 0.2640150 0.8143040
vt 0.2795400 0.8575710
vt 0.2998210 0.8395080
vt 0.0001260 0.6010800
vt 0.0001260 0.5739220
vt 0.0008680 0.6019350
vt 0.1066230 0.2252630
vt 0.1066230 0.4771710
vt 0.0583050 0.3742130
vt 0.7222460 0.6830220
vt 0.6891830 0.4955150
vt 0.7300920 0.4312360
vt 0.3604320 0.6863080
vt 0.1085200 0.6863080
vt 0.1755640 0.6211930
vt 0.7823170 0.4150730
vt 0.7710860 0.2867070
vt 0.7803770 0.1631680
vt 0.3816680 0.3635840
vt 0.5045470 0.1672160
vt 0.5115150 0.1973870
vt 0.4967560 0.1334680
vt 0.4835140 0.0815230
vt 0.5154790 0.2180190
vt 0.5318930 0.2912350
vt 0.1340280 0.2008920
vt 0.1075460 0.0124660
vt 0.1934970 0.2711900
vt 0.4149790 0.7762980
vt 0.3006000 0.7346680
vt 0.4464330 0.7633540
vt 0.4668610 0.7552530
vt 0.4976390 0.7434160
vt 0.4851320 0.7480270
vt 0.5419240 0.7259370
vt 0.7798240 0.6025480
vt 0.7625260 0.6025480
vt 0.7606630 0.3512530
vt 0.5322040 0.0124670
vt 0.7842400 0.0387260
vt 0.7842400 0.1603980
vt 0.7834980 0.0104910
vt 0.0001620 0.8703140
vt 0.0001620 0.6537790
vt 0.2457400 0.8661620
vt 0.3969350 0.6966490
vt 0.5666270 0.6644720
vt 0.6134680 0.6972710
vt 0.0507470 0.5627330
vt 0.0532800 0.5337780
vt 0.0545680 0.5640870
vt 0.3621900 0.6628880
vt 0.6112520 0.6670160
vt 0.0523720 0.6091930
vt 0.0523720 0.5644960
vt 0.0554270 0.6118570
vt 0.6347630 0.7225240
vt 0.5425970 0.7354770
vt 0.7842790 0.6791580
vt 0.7827040 0.6664110
vt 0.2620870 0.3687610
vt 0.1586780 0.3723720
vt 0.2591530 0.1189340
vt 0.4204870 0.0664380
vt 0.2793950 0.0006460
vt 0.5541870 0.0001290
vt 0.5971890 0.6366210
vt 0.4825710 0.6466480
vt 0.6797630 0.3916030
vt 0.6858340 0.6414560
vt 0.6494810 0.6360450
vt 0.0063690 0.4302190
vt 0.0063690 0.6537360
vt 0.0000890 0.6526170
vt 0.3077240 0.7251890
vt 0.5570040 0.7009520
vt 0.5576510 0.7251890
vt 0.3345600 0.6965700
vt 0.4399660 0.6237210
vt 0.1854690 0.6237210
vt 0.3605660 0.6072770
vt 0.9652690 0.3941660
vt 0.9686240 0.3280540
vt 0.9790930 0.3645210
vt 0.9647720 0.5398050
vt 0.6375810 0.3899190
vt 0.6375810 0.3422870
vt 0.6962490 0.3745680
vt 0.2232650 0.4914180
vt 0.2709960 0.4893890
vt 0.2592130 0.5226670
vt 0.6808060 0.1366590
vt 0.4438980 0.6228820
vt 0.8992890 0.2519910
vt 0.9879440 0.2488950
vt 0.8998430 0.4704290
vt 0.3081750 0.6959900
vt 0.3138940 0.7173320
vt 0.0749940 0.7167640
vt 0.0631550 0.6850530
vt 0.1164640 0.1487320
vt 0.1512960 0.2604150
vt 0.1263850 0.4016910
vt 0.8644570 0.4238430
vt 0.8657020 0.6725300
vt 0.7689180 0.6640630
vt 0.7587390 0.6504220
vt 0.1187500 0.3974110
vn 0.0039331 0.9887964 0.1492189
vn 0.0039331 0.9887964 0.1492189
vn 0.0039331 0.9887964 0.1492189
vn -0.0024706 -0.9999761 -0.0064621
vn -0.0024706 -0.9999761 -0.0064621
vn -0.0024706 -0.9999761 -0.0064621
vn -0.1859559 0.9824996 -0.0107215
vn -0.1859559 0.9824996 -0.0107215
vn -0.1859559 0.9824996 -0.0107215
vn 0.0084275 0.9999600 0.0029920
vn 0.0084275 0.9999600 0.0029920
vn 0.0084275 0.9999600 0.0029920
vn 0.0024072 0.9999970 0.0003730
vn 0.0024072 0.9999970 0.0003730
vn 0.0024072 0.9999970 0.0003730
vn -0.9561605 0.2927757 0.0062888
vn -0.9931777 0.1161540 0.0103141
vn -0.9967216 0.0801448 0.0110837
vn -0.9998358 -0.0126311 0.0129901
vn 0.0032832 0.9999945 0.0004635
vn 0.0032832 0.9999945 0.0004635
vn 0.0032832 0.9999945 0.0004635
vn -0.0805184 0.9967472 0.0034366
vn -0.0805184 0.9967472 0.0034366
vn -0.0805184 0.9967472 0.0034366
vn 0.0080537 0.9999675 -0.0003410
vn 0.0080537 0.9999675 -0.0003410
vn 0.0080537 0.9999675 -0.0003410
vn 0.0016480 -0.9999940 0.0030465
vn 0.0016480 -0.9999940 0.0030465
vn 0.0016480 -0.9999940 0.0030465
vn -0.2677878 0.9597957 0.0841539
vn -0.2677878 0.9597957 0.0841539
vn -0.2677878 0.9597957 0.0841539
vn -0.0089074 0.9996317 0.0256327
vn -0.0089074 0.9996317 0.0256327
vn -0.0089074 0.9996317 0.0256327
vn -0.1757906 0.9740531 -0.1425423
vn -0.1757906 0.9740531 -0.1425423
vn -0.1757906 0.9740531 -0.1425423
vn 0.0030585 0.9999941 -0.0015474
vn 0.0030585 0.9999941 -0.0015474
vn 0.0030585 0.9999941 -0.0015474
vn -0.3210033 -0.0985900 0.9419326
vn -0.2574270 0.3775059 0.8895058
vn -0.1257479 0.2136848 0.9687757
vn -0.0405924 0.8719687 0.4878759
vn -0.5834293 -0.1769706 0.7926485
vn -0.0000537 0.9999792 -0.0064537
vn -0.0000537 0.9999792 -0.0064537
vn -0.0000537 0.9999792 -0.0064537
vn 0.0066213 0.5826308 0.8127100
vn 0.0066213 0.5826308 0.8127100
vn 0.0066213 0.5826308 0.8127100
vn -0.1427944 -0.0047331 0.9897411
vn -0.1427944 -0.0047331 0.9897411
vn -0.1427944 -0.0047331 0.9897411
vn -0.0855895 0.9963059 0.0069999
vn -0.0855895 0.9963059 0.0069999
vn -0.0855895 0.9963059 0.0069999
vn -0.0000331 0.9999981 0.0019511
vn -0.0002472 0.9999884 0.0048138
vn 0.0012767 0.9998780 -0.0155668
vn -0.0015223 0.9997597 0.0218666
vn -0.0190749 -0.9998095 -0.0041421
vn -0.0190749 -0.9998095 -0.0041421
vn -0.0190749 -0.9998095 -0.0041421
vn -0.9192586 -0.3895099 0.0569708
vn -0.9851768 -0.1694518 0.0266972
vn -0.9142421 -0.4009176 0.0585349
vn -0.9915186 -0.1282550 0.0210102
vn 0.0104992 0.0299395 0.9994966
vn 0.0104992 0.0299395 0.9994966
vn 0.0104992 0.0299395 0.9994966
vn 0.9977097 -0.0670977 -0.0085587
vn 0.9977097 -0.0670977 -0.0085587
vn 0.9977097 -0.0670977 -0.0085587
vn -0.1703696 -0.1599305 0.9723150
vn -0.1581727 -0.0393173 0.9866284
vn -0.1517159 0.0059006 0.9884065
vn -0.1642079 -0.1145577 0.9797511
vn -0.1288659 0.1719997 0.9766318
vn -0.9804556 -0.0777234 0.1807370
vn -0.9804556 -0.0777234 0.1807370
vn -0.9804556 -0.0777234 0.1807370
vn -0.1511017 -0.0363769 0.9878487
vn -0.1466832 -0.0175287 0.9890282
vn -0.1509204 -0.0355993 0.9879047
vn -0.1453684 -0.0119637 0.9893053
vn -0.0174274 0.0021224 -0.9998459
vn -0.0174274 0.0021224 -0.9998459
vn -0.0174274 0.0021224 -0.9998459
vn -0.9922214 0.0316021 0.1204078
vn -0.9922214 0.0316021 0.1204078
vn -0.9922214 0.0316021 0.1204078
vn -0.9918762 0.0247956 0.1247668
vn -0.9921997 0.0117307 0.1241052
vn -0.9919391 -0.0269074 0.1238259
vn -0.9859418 0.1089087 0.1267189
vn -0.9889495 0.0789480 0.1254837
vn -0.1587789 0.0073714 0.9872866
vn -0.1587789 0.0073714 0.9872866
vn -0.1587789 0.0073714 0.9872866
vn 0.0007920 0.0354241 -0.9993721
vn 0.0007920 0.0354241 -0.9993721
vn 0.0007920 0.0354241 -0.9993721
vn -0.9922058 -0.0247381 0.1221301
vn -0.9915676 -0.0359857 0.1244940
vn -0.9926877 -0.0141140 0.1198829
vn -0.9932173 0.0030001 0.1162340
vn 0.9999646 0.0044253 0.0071509
vn 0.9999646 0.0044253 0.0071509
vn 0.9999646 0.0044253 0.0071509
vn -0.1713997 0.7663971 0.6190780
vn -0.1713997 0.7663971 0.6190780
vn -0.1713997 0.7663971 0.6190780
vn -0.0084278 0.0044747 0.9999545
vn -0.0235159 0.0084129 0.9996881
vn -0.0529299 0.0190215 0.9984171
vn -0.0435855 0.0032686 0.9990444
vn -0.9936221 0.0236116 0.1102615
vn -0.9936097 0.0226285 0.1105794
vn -0.9935094 0.0165642 0.1125380
vn -0.9936660 0.0281676 0.1087863
vn -0.0258674 0.0124259 0.9995882
vn -0.9992014 -0.0330711 -0.0224267
vn -0.9992014 -0.0330711 -0.0224267
vn -0.9992014 -0.0330711 -0.0224267
vn -0.0067534 -0.0011353 0.9999766
vn -0.0067534 -0.0011353 0.9999766
vn -0.0067534 -0.0011353 0.9999766
vn -0.0727374 -0.0259392 0.9970138
vn -0.0871904 -0.0521449 0.9948260
vn -0.0429710 0.0277352 0.9986913
vn -0.1103273 -0.0942972 0.9894119
vn -0.9986551 0.0031773 -0.0517488
vn -0.9986551 0.0031773 -0.0517488
vn -0.9986551 0.0031773 -0.0517488
vn -0.0012011 0.0241088 -0.9997086
vn -0.0012011 0.0241088 -0.9997086
vn -0.0012011 0.0241088 -0.9997086
vn -0.0067823 -0.0091425 0.9999352
vn -0.0067823 -0.0091425 0.9999352
vn -0.0067823 -0.0091425 0.9999352
vn -0.9830208 0.1762521 0.0510413
vn -0.9830208 0.1762521 0.0510413
vn -0.9830208 0.1762521 0.0510413
vn 0.9817734 -0.1781617 0.0661776
vn 0.9817734 -0.1781617 0.0661776
vn 0.9817734 -0.1781617 0.0661776
vn -0.0173638 0.1219497 0.9923844
vn -0.0230555 0.0413607 0.9988782
vn -0.0068671 0.0156513 0.9998539
vn -0.0200000 0.1080647 0.9939427
vn -0.0245339 0.0450975 0.9986813
vn -0.0177423 0.0265619 0.9994897
vn -0.9865625 0.1626525 -0.0154465
vn -0.9969744 0.0593512 -0.0501953
vn -0.9977516 0.0300897 -0.0598865
vn -0.0124398 -0.0618963 0.9980051
vn -0.0124398 -0.0618963 0.9980051
vn -0.0124398 -0.0618963 0.9980051
vn -0.9714936 0.2368528 0.0100442
vn 0.0085109 -0.1784848 -0.9839059
vn 0.0085109 -0.1784848 -0.9839059
vn 0.0085109 -0.1784848 -0.9839059
vn -0.0055083 0.0001204 -0.9999848
vn -0.0055083 0.0001204 -0.9999848
vn -0.0055083 0.0001204 -0.9999848
vn -0.0173051 -0.0024960 0.9998471
vn -0.0173051 -0.0024960 0.9998471
vn -0.0173051 -0.0024960 0.9998471
vn -0.9991907 -0.0398471 -0.0054897
vn -0.9997286 -0.0231731 -0.0023738
vn -0.9999287 -0.0119370 -0.0002863
vn -0.9999982 -0.0003629 0.0018797
vn -0.9999979 0.0003687 0.0020059
vn 0.6871951 0.6892504 0.2295579
vn 0.6871951 0.6892504 0.2295579
vn 0.6871951 0.6892504 0.2295579
vn -0.9999309 -0.0074839 -0.0090668
vn -0.9999782 -0.0045044 -0.0048372
vn -0.9997493 -0.0136164 -0.0177728
vn -0.9999951 0.0009943 0.0029686
vn -0.0131976 0.0292622 0.9994846
vn -0.0131976 0.0292622 0.9994846
vn -0.0131976 0.0292622 0.9994846
vn 0.3853413 -0.8609477 0.3320861
vn 0.3853413 -0.8609477 0.3320861
vn 0.3853413 -0.8609477 0.3320861
vn -0.9993694 -0.0354855 0.0012586
vn -0.9982595 0.0589743 -0.0000214
vn -0.9964212 0.0845259 -0.0003688
vn -0.6760679 0.1427167 0.7228860
vn -0.6760679 0.1427167 0.7228860
vn -0.6760679 0.1427167 0.7228860
vn 0.6263531 -0.4692357 -0.6224947
vn 0.6263531 -0.4692357 -0.6224947
vn 0.6263531 -0.4692357 -0.6224947
vn -0.9883137 0.1524285 -0.0012946
vn -0.9292386 0.1146640 0.3512376
vn -0.9292386 0.1146640 0.3512376
vn -0.9292386 0.1146640 0.3512376
vn -0.0008797 -0.1442855 0.9895357
vn -0.0042852 -0.0521674 0.9986292
vn -0.0033658 -0.0771819 0.9970113
vn -0.0063404 0.0041301 0.9999714
vn -0.6680527 -0.0563452 0.7419777
vn -0.6680527 -0.0563452 0.7419777
vn -0.6680527 -0.0563452 0.7419777
vn -0.0049718 -0.0018558 -0.9999859
vn -0.0049718 -0.0018558 -0.9999859
vn -0.0049718 -0.0018558 -0.9999859
vn 0.9999611 -0.0047561 -0.0074313
vn 0.9999611 -0.0047561 -0.0074313
vn 0.9999611 -0.0047561 -0.0074313
vn -0.9985143 -0.0527060 0.0138283
vn -0.9985143 -0.0527060 0.0138283
vn -0.9985143 -0.0527060 0.0138283
vn 0.0103564 0.0365611 0.9992778
vn 0.0103564 0.0365611 0.9992778
vn 0.0103564 0.0365611 0.9992778
vn -0.0114192 -0.0002185 0.9999348
vn -0.0110146 0.0035803 0.9999329
vn -0.0006888 0.1448885 0.9894478
vn -0.0200114 -0.0821995 0.9964150
vn -0.0285328 -0.1631340 0.9861912
vn 0.0054485 0.2070740 0.9783101
vn -0.0060312 0.0196089 0.9997895
vn -0.0140795 -0.0567262 0.9982905
vn -0.0140795 -0.0567262 0.9982905
vn -0.0140795 -0.0567262 0.9982905
vn -0.9699246 0.2396863 0.0423888
vn -0.9998808 -0.0018423 0.0153286
vn -0.9924841 0.1187748 0.0294602
vn -0.9998634 -0.0000382 0.0165260
vn -0.9792611 -0.2023053 -0.0109630
vn -0.9702773 -0.2412222 -0.0193359
vn -0.9973809 -0.0716292 0.0100304
vn 0.0050604 0.0410590 0.9991439
vn 0.0050604 0.0410590 0.9991439
vn 0.0050604 0.0410590 0.9991439
vn 0.9987326 -0.0408118 0.0294562
vn 0.9999900 0.0044706 0.0000662
vn 0.9997312 0.0206913 -0.0104638
vn 0.9965899 -0.0678289 0.0469873
vn -0.9921130 -0.1245739 0.0139001
vn -0.9921130 -0.1245739 0.0139001
vn -0.9921130 -0.1245739 0.0139001
vn 0.0065401 -0.9999786 -0.0003243
vn -0.0017045 -0.9999985 0.0002769
vn -0.0059078 -0.9999811 -0.0016969
vn 0.0004760 -0.9973659 0.0725330
vn 0.0004760 -0.9973659 0.0725330
vn 0.0004760 -0.9973659 0.0725330
vn 0.0070353 -0.9999752 -0.0004080
vn -0.0085083 -0.9999590 -0.0030957
vn 0.2756148 0.9611995 0.0114874
vn 0.2756148 0.9611995 0.0114874
vn 0.2756148 0.9611995 0.0114874
vn -0.9988005 -0.0017371 0.0489343
vn -0.9995076 -0.0213113 0.0230306
vn -0.9995139 -0.0220936 0.0219941
vn -0.9993415 -0.0361264 0.0033888
vn 0.0046291 0.0310699 0.9995065
vn 0.0046291 0.0310699 0.9995065
vn 0.0046291 0.0310699 0.9995065
vn -0.0048286 -0.0010948 -0.9999877
vn -0.0048286 -0.0010948 -0.9999877
vn -0.0048286 -0.0010948 -0.9999877
vn -0.0048723 0.0543787 -0.9985085
vn -0.0080368 -0.0467172 -0.9988758
vn -0.0057036 -0.0294811 -0.9995491
vn -0.0063131 -0.2990636 -0.9542123
vn -0.0041977 -0.1190240 -0.9928825
vn -0.0013494 -0.9960615 0.0886550
vn -0.0013494 -0.9960615 0.0886550
vn -0.0013494 -0.9960615 0.0886550
vn 0.0003410 -0.9999875 -0.0049791
vn 0.0006957 -0.9999973 -0.0022100
vn 0.0007365 -0.9999979 -0.0018915
vn 0.0002816 -0.9999851 -0.0054428
vn -0.9957703 -0.0917730 0.0043847
vn -0.9957703 -0.0917730 0.0043847
vn -0.9957703 -0.0917730 0.0043847
vn -0.7217766 -0.1565639 -0.6741856
vn -0.7626239 0.1676827 -0.6247297
vn -0.6687634 -0.3205512 -0.6708222
vn -0.5822602 -0.4989609 -0.6418809
vn -0.0960634 -0.9864351 0.1331073
vn -0.0356898 -0.9832445 0.1787640
vn -0.0552489 -0.9848950 0.1641020
vn -0.0462104 -0.9986727 0.0227471
vn -0.0218405 -0.9995706 0.0195367
vn -0.0171146 -0.9996746 0.0189130
vn 0.0009217 -0.9785772 0.2058781
vn 0.0002375 -0.9998619 0.0166196
vn 0.0131780 0.9961883 -0.0862272
vn 0.0131780 0.9961883 -0.0862272
vn 0.0131780 0.9961883 -0.0862272
vn -0.0526339 -0.9986138 -0.0004774
vn -0.0522622 -0.9986333 -0.0005107
vn -0.0603917 -0.9981747 0.0002189
vn -0.0606425 -0.9981595 0.0002414
vn -0.4112148 0.7199954 -0.5590251
vn -0.4668043 0.6949781 -0.5468996
vn -0.3668656 0.7375361 -0.5669657
vn -0.9797661 0.2000467 0.0063031
vn -0.9842106 0.1770000 0.0007363
vn -0.5578629 0.8129813 0.1668841
vn -0.5021099 0.8464940 0.1770126
vn -0.2256136 0.7805084 -0.5830138
usemtl meshy
f 136/136/136 137/137/137 138/138/138
f 305/305/305 306/306/306 307/307/307
f 261/261/261 262/262/262 263/263/263
f 157/157/157 158/158/158 159/159/159
f 181/181/181 182/182/182 183/183/183
f 181/181/181 184/184/184 182/182/182
f 308/308/308 309/309/309 310/310/310
f 311/311/311 308/308/308 310/310/310
f 160/160/160 161/161/161 162/162/162
f 283/283/283 284/284/284 285/285/285
f 305/305/305 307/307/307 312/312/312
f 286/286/286 287/287/287 288/288/288
f 126/126/126 127/127/127 128/128/128
f 263/263/263 262/262/262 264/264/264
f 163/163/163 158/158/158 157/157/157
f 185/185/185 186/186/186 187/187/187
f 265/265/265 266/266/266 267/267/267
f 301/301/301 302/302/302 303/303/303
f 301/301/301 303/303/303 304/304/304
f 290/290/290 291/291/291 292/292/292
f 58/58/58 59/59/59 60/60/60
f 293/293/293 294/294/294 295/295/295
f 271/271/271 272/272/272 273/273/273
f 114/114/114 115/115/115 116/116/116
f 286/286/286 288/288/288 289/289/289
f 61/61/61 62/62/62 63/63/63
f 129/129/129 130/130/130 131/131/131
f 62/62/62 61/61/61 64/64/64
f 296/296/296 292/292/292 291/291/291
f 295/295/295 294/294/294 297/297/297
f 164/164/164 165/165/165 166/166/166
f 298/298/298 299/299/299 300/300/300
f 273/273/273 274/274/274 275/275/275
f 86/86/86 87/87/87 88/88/88
f 139/139/139 140/140/140 141/141/141
f 167/167/167 168/168/168 169/169/169
f 117/117/117 118/118/118 125/125/125
f 101/101/101 102/102/102 103/103/103
f 271/271/271 273/273/273 275/275/275
f 268/268/268 269/269/269 270/270/270
f 230/230/230 231/231/231 232/232/232
f 276/276/276 277/277/277 278/278/278
f 142/142/142 143/143/143 144/144/144
f 151/151/151 152/152/152 153/153/153
f 279/279/279 280/280/280 281/281/281
f 44/44/44 45/45/45 46/46/46
f 49/49/49 50/50/50 51/51/51
f 280/280/280 279/279/279 282/282/282
f 65/65/65 66/66/66 67/67/67
f 45/45/45 47/47/47 46/46/46
f 125/125/125 118/118/118 119/119/119
f 104/104/104 105/105/105 106/106/106
f 170/170/170 171/171/171 172/172/172
f 223/223/223 224/224/224 225/225/225
f 52/52/52 53/53/53 54/54/54
f 120/120/120 119/119/119 118/118/118
f 78/78/78 79/79/79 80/80/80
f 132/132/132 133/133/133 134/134/134
f 226/226/226 223/223/223 227/227/227
f 223/223/223 226/226/226 224/224/224
f 225/225/225 228/228/228 223/223/223
f 154/154/154 155/155/155 151/151/151
f 78/78/78 80/80/80 81/81/81
f 204/204/204 205/205/205 206/206/206
f 207/207/207 206/206/206 205/205/205
f 87/87/87 89/89/89 88/88/88
f 228/228/228 229/229/229 223/223/223
f 152/152/152 151/151/151 155/155/155
f 132/132/132 135/135/135 133/133/133
f 82/82/82 80/80/80 79/79/79
f 55/55/55 56/56/56 57/57/57
f 156/156/156 155/155/155 154/154/154
f 208/208/208 209/209/209 210/210/210
f 44/44/44 48/48/48 45/45/45
f 32/32/32 33/33/33 34/34/34
f 188/188/188 189/189/189 190/190/190
f 90/90/90 91/91/91 92/92/92
f 35/35/35 36/36/36 37/37/37
f 145/145/145 146/146/146 147/147/147
f 191/191/191 192/192/192 193/193/193
f 194/194/194 195/195/195 196/196/196
f 16/16/16 17/17/17 18/18/18
f 68/68/68 69/69/69 70/70/70
f 107/107/107 108/108/108 109/109/109
f 83/83/83 84/84/84 85/85/85
f 96/96/96 97/97/97 98/98/98
f 96/96/96 99/99/99 100/100/100
f 109/109/109 110/110/110 107/107/107
f 68/68/68 71/71/71 69/69/69
f 197/197/197 198/198/198 199/199/199
f 233/233/233 234/234/234 235/235/235
f 17/17/17 19/19/19 18/18/18
f 217/217/217 218/218/218 219/219/219
f 173/173/173 174/174/174 175/175/175
f 200/200/200 193/193/193 192/192/192
f 176/176/176 177/177/177 175/175/175
f 121/121/121 122/122/122 123/123/123
f 93/93/93 94/94/94 95/95/95
f 174/174/174 176/176/176 175/175/175
f 201/201/201 203/203/203 202/202/202
f 247/247/247 248/248/248 249/249/249
f 235/235/235 234/234/234 236/236/236
f 97/97/97 96/96/96 100/100/100
f 237/237/237 238/238/238 234/234/234
f 237/237/237 234/234/234 239/239/239
f 238/238/238 236/236/236 234/234/234
f 38/38/38 39/39/39 40/40/40
f 122/122/122 121/121/121 124/124/124
f 240/240/240 241/241/241 242/242/242
f 250/250/250 251/251/251 252/252/252
f 23/23/23 24/24/24 25/25/25
f 253/253/253 254/254/254 255/255/255
f 1/1/1 2/2/2 3/3/3
f 41/41/41 42/42/42 43/43/43
f 72/72/72 73/73/73 74/74/74
f 4/4/4 5/5/5 6/6/6
f 26/26/26 27/27/27 28/28/28
f 20/20/20 21/21/21 22/22/22
f 7/7/7 8/8/8 9/9/9
f 10/10/10 11/11/11 12/12/12
f 220/220/220 221/221/221 222/222/222
f 250/250/250 256/256/256 251/251/251
f 211/211/211 212/212/212 213/213/213
f 29/29/29 30/30/30 31/31/31
f 13/13/13 14/14/14 15/15/15
f 252/252/252 251/251/251 257/257/257
f 258/258/258 259/259/259 260/260/260
f 243/243/243 244/244/244 245/245/245
f 148/148/148 149/149/149 150/150/150
f 243/243/243 246/246/246 244/244/244
f 214/214/214 215/215/215 216/216/216
f 111/111/111 112/112/112 113/113/113
f 178/178/178 179/179/179 180/180/180
f 75/75/75 76/76/76 77/77/77
