mtllib model.mtl
o dunnage-block
v 0.4648266 0.4272736 0.4991757
v 0.4990190 0.4952751 0.4295919
v 0.4978995 0.2899572 0.4957975
v 0.4978995 0.2899572 0.4957975
v 0.4969878 0.4088715 0.4959343
v 0.4648266 0.4272736 0.4991757
v 0.4990190 0.4952751 0.4295919
v 0.4648266 0.4272736 0.4991757
v 0.4969878 0.4088715 0.4959343
v 0.4962592 0.5000000 0.2894760
v 0.4969878 0.4088715 0.4959343
v 0.4978995 0.2899572 0.4957975
v 0.4980737 0.1490400 0.4960784
v 0.4979058 0.3812750 0.2810938
v 0.4978995 0.2899572 0.4957975
v 0.4996155 0.2538165 0.1489051
v 0.4965277 0.2165867 0.3432453
v 0.4984724 -0.0453408 0.4403897
v 0.4988827 -0.0167744 0.4925405
v 0.4979058 0.3812750 0.2810938
v 0.4980737 0.1490400 0.4960784
v 0.4988827 -0.0167744 0.4925405
v 0.4980737 0.1490400 0.4960784
v 0.4971646 0.0555461 0.4963693
v 0.4967544 0.0023772 0.3316604
v 0.4963063 0.4987782 0.0361102
v 0.4962592 0.5000000 0.2894760
v 0.4979840 0.4914419 0.0909704
v 0.4979058 0.3812750 0.2810938
v 0.4983774 0.3340294 0.2638334
v 0.4980884 0.4581584 0.1005832
v 0.4965277 0.2165867 0.3432453
v 0.4995599 0.3252157 0.1451790
v 0.4962592 0.5000000 0.2894760
v 0.4978995 0.2899572 0.4957975
v 0.4990190 0.4952751 0.4295919
v 0.4969878 0.4088715 0.4959343
v 0.4996155 0.2538165 0.1489051
v 0.4979840 0.4914419 0.0909704
v 0.4962592 0.5000000 0.2894760
v 0.4979058 0.3812750 0.2810938
v 0.4962592 0.5000000 0.2894760
v 0.4979840 0.4914419 0.0909704
v 0.4981566 0.4692341 -0.0494607
v 0.4963063 0.4987782 0.0361102
v 0.4989975 0.3578571 0.0203684
v 0.4995599 0.3252157 0.1451790
v 0.4996155 0.2538165 0.1489051
v 0.4983774 0.3340294 0.2638334
v 0.4996554 0.4063069 0.0825199
v 0.4991848 0.4126888 -0.0666299
v 0.4980884 0.4581584 0.1005832
v 0.4980884 0.4581584 0.1005832
v 0.4996155 0.2538165 0.1489051
v 0.4967544 0.0023772 0.3316604
v 0.4995190 0.1341938 0.2140925
v 0.4995158 -0.0011612 0.1403548
v 0.4993039 0.0739423 0.2031051
v 0.4993118 0.0232501 0.1900656
v 0.4980512 -0.1597174 0.3488210
v 0.4993039 0.0739423 0.2031051
v 0.4993039 0.0739423 0.2031051
v 0.4995158 -0.0011612 0.1403548
v 0.4963315 0.0970772 -0.0453437
v 0.4998012 0.0518398 -0.0325552
v 0.4990720 -0.0123481 -0.0015608
v 0.4987683 -0.0968215 0.1649992
v 0.4998285 -0.0718599 -0.1407541
v 0.4994739 -0.1447658 0.1349644
v 0.4963315 0.0970772 -0.0453437
v 0.4998043 0.1109183 -0.0506485
v 0.4993039 0.0739423 0.2031051
v 0.4996155 0.2538165 0.1489051
v 0.4998043 0.1109183 -0.0506485
v 0.4993039 0.0739423 0.2031051
v 0.4961401 -0.2643709 0.4986895
v 0.4973728 -0.1008497 0.4953027
v 0.1585424 -0.2425221 0.4999258
v 0.4949403 -0.3712590 0.4985697
v 0.4971646 0.0555461 0.4963693
v 0.4973728 -0.1008497 0.4953027
v 0.4988827 -0.0167744 0.4925405
v 0.4994996 -0.2599348 0.4612494
v 0.4973419 -0.2723493 0.4171899
v 0.4967544 0.0023772 0.3316604
v 0.4984724 -0.0453408 0.4403897
v 0.4961401 -0.2643709 0.4986895
v 0.4973728 -0.1008497 0.4953027
v 0.4988827 -0.0167744 0.4925405
v 0.4979709 -0.4889945 0.4439220
v 0.5000000 -0.3298957 0.4359377
v 0.4994996 -0.2599348 0.4612494
v 0.4973419 -0.2723493 0.4171899
v 0.4961401 -0.2643709 0.4986895
v 0.4949403 -0.3712590 0.4985697
v 0.4983234 -0.3351184 0.3640950
v 0.4979709 -0.4889945 0.4439220
v 0.4974804 -0.4928705 0.3378151
v 0.4941885 -0.4921406 0.4927045
v 0.4980512 -0.1597174 0.3488210
v 0.4979709 -0.4889945 0.4439220
v 0.4973419 -0.2723493 0.4171899
v 0.4974804 -0.4928705 0.3378151
v 0.4979709 -0.4889945 0.4439220
v 0.1217779 -0.4760862 0.4988935
v 0.1217779 -0.4760862 0.4988935
v 0.4941885 -0.4921406 0.4927045
v 0.4949403 -0.3712590 0.4985697
v 0.4974305 -0.4941078 -0.0514556
v 0.4970340 -0.4929154 0.2498970
v -0.1335603 -0.4974276 0.1261503
v 0.4941885 -0.4921406 0.4927045
v 0.4973419 -0.2723493 0.4171899
v 0.4980512 -0.1597174 0.3488210
v 0.4967544 0.0023772 0.3316604
v 0.4994739 -0.1447658 0.1349644
v 0.4988433 -0.3861170 0.2515511
v 0.4995027 -0.2887022 0.1851060
v 0.4995452 -0.2395069 0.2659040
v 0.4987683 -0.0968215 0.1649992
v 0.4993118 0.0232501 0.1900656
v 0.4993039 0.0739423 0.2031051
v 0.4983234 -0.3351184 0.3640950
v 0.4995158 -0.0011612 0.1403548
v 0.4980512 -0.1597174 0.3488210
v 0.4970340 -0.4929154 0.2498970
v 0.4989792 -0.4850190 0.2947537
v 0.4974804 -0.4928705 0.3378151
v 0.4970340 -0.4929154 0.2498970
v 0.4988433 -0.3861170 0.2515511
v 0.4989792 -0.4850190 0.2947537
v 0.4995452 -0.2395069 0.2659040
v 0.4983234 -0.3351184 0.3640950
v 0.4974804 -0.4928705 0.3378151
v 0.4995027 -0.2887022 0.1851060
v 0.4984671 -0.1719816 0.1064441
v 0.4994739 -0.1447658 0.1349644
v 0.4995027 -0.2887022 0.1851060
v 0.4974305 -0.4941078 -0.0514556
v 0.4982536 -0.4384506 0.0211228
v 0.4970340 -0.4929154 0.2498970
v 0.4998500 -0.1177862 -0.1204833
v 0.4993910 -0.2173556 0.0550278
v 0.4993736 -0.2302365 -0.1385866
v 0.4993180 -0.3464965 -0.0814903
v 0.4984671 -0.1719816 0.1064441
v 0.4995027 -0.2887022 0.1851060
v 0.4990190 0.4952751 0.4295919
v -0.4970381 0.3725356 0.4966802
v 0.4978995 0.2899572 0.4957975
v 0.1585424 -0.2425221 0.4999258
v 0.4973728 -0.1008497 0.4953027
v -0.2780339 -0.1114862 0.5000000
v 0.4974804 -0.4928705 0.3378151
v -0.4970439 -0.4941801 0.2602242
v 0.4970340 -0.4929154 0.2498970
v 0.4980737 0.1490400 0.4960784
v -0.4944262 0.2620037 0.4982474
v 0.4990190 0.4952751 0.4295919
v 0.4962592 0.5000000 0.2894760
v -0.4951900 0.4913580 0.4950117
v 0.4971646 0.0555461 0.4963693
v -0.4979871 0.0487758 0.4944299
v 0.1217779 -0.4760862 0.4988935
v -0.4956496 -0.4963639 0.4386828
v 0.4963063 0.4987782 0.0361102
v -0.4942909 0.4998360 0.0763267
v 0.1217779 -0.4760862 0.4988935
v 0.4949403 -0.3712590 0.4985697
v 0.4978995 0.2899572 0.4957975
v 0.4980737 0.1490400 0.4960784
v 0.4974804 -0.4928705 0.3378151
v 0.4973728 -0.1008497 0.4953027
v 0.4962592 0.5000000 0.2894760
v 0.1585424 -0.2425221 0.4999258
v 0.4963063 0.4987782 0.0361102
v 0.4981566 0.4692341 -0.0494607
v 0.4984881 0.4935595 -0.2139515
v 0.4989975 0.3578571 0.0203684
v 0.4995610 0.3164781 -0.2230637
v 0.4996554 0.4063069 0.0825199
v 0.4991848 0.4126888 -0.0666299
v 0.4980884 0.4581584 0.1005832
v 0.4970796 0.3434441 -0.2486008
v 0.4996155 0.2538165 0.1489051
v 0.4998494 0.2247231 -0.1961391
v 0.4991848 0.4126888 -0.0666299
v 0.4995610 0.3164781 -0.2230637
v 0.4995368 0.1831431 -0.3516660
v 0.4997241 0.2672067 -0.2848087
v 0.4984881 0.4935595 -0.2139515
v 0.4970796 0.3434441 -0.2486008
v 0.4989881 0.3835682 -0.2723881
v 0.4995237 0.2986069 -0.3041669
v 0.4994612 0.3483408 -0.3285432
v 0.4983685 0.3570218 -0.3863609
v 0.4991848 0.4126888 -0.0666299
v 0.4970796 0.3434441 -0.2486008
v 0.4995610 0.3164781 -0.2230637
v 0.4970796 0.3434441 -0.2486008
v 0.4994612 0.3483408 -0.3285432
v 0.4997083 -0.0339275 -0.1887195
v 0.4995058 0.0466230 -0.1668159
v 0.4963315 0.0970772 -0.0453437
v 0.4998012 0.0518398 -0.0325552
v 0.4963315 0.0970772 -0.0453437
v 0.4995058 0.0466230 -0.1668159
v 0.4998043 0.1109183 -0.0506485
v 0.4998494 0.2247231 -0.1961391
v 0.4996155 0.2538165 0.1489051
v 0.4985773 0.1625005 -0.1565472
v 0.4998043 0.1109183 -0.0506485
v 0.4998285 -0.0718599 -0.1407541
v 0.4990720 -0.0123481 -0.0015608
v 0.4995058 0.0466230 -0.1668159
v 0.4998494 0.2247231 -0.1961391
v 0.4985773 0.1625005 -0.1565472
v 0.4991559 -0.1520943 -0.3655781
v 0.4995058 0.0466230 -0.1668159
v 0.4984462 -0.1803562 -0.3163949
v 0.4995814 0.0480282 -0.3363349
v 0.4995610 0.3164781 -0.2230637
v 0.4979525 0.0265854 -0.3760879
v 0.4985773 0.1625005 -0.1565472
v 0.4963656 0.2853707 -0.4956407
v 0.4969878 0.4897303 -0.4918632
v 0.4985884 0.3747857 -0.4920300
v 0.4985884 0.3747857 -0.4920300
v 0.4984530 0.4949646 -0.3996899
v 0.4963656 0.2853707 -0.4956407
v 0.4983685 0.3570218 -0.3863609
v 0.4969878 0.4897303 -0.4918632
v 0.4984881 0.4935595 -0.2139515
v 0.4994612 0.3483408 -0.3285432
v 0.4994576 0.1716908 -0.4060641
v 0.4989881 0.3835682 -0.2723881
v 0.4983685 0.3570218 -0.3863609
v 0.4820468 0.2244557 -0.5000000
v 0.4963656 0.2853707 -0.4956407
v 0.4958641 0.1216680 -0.4959801
v 0.4995610 0.3164781 -0.2230637
v 0.4993306 0.0956759 -0.3892528
v 0.4995368 0.1831431 -0.3516660
v 0.4994576 0.1716908 -0.4060641
v 0.4995237 0.2986069 -0.3041669
v 0.4965944 0.0486098 -0.4948820
v 0.4963656 0.2853707 -0.4956407
v 0.4983685 0.3570218 -0.3863609
v 0.4958641 0.1216680 -0.4959801
v 0.4979525 0.0265854 -0.3760879
v 0.4994612 0.3483408 -0.3285432
v 0.4995368 0.1831431 -0.3516660
v 0.4993306 0.0956759 -0.3892528
v 0.0096019 0.0345716 -0.4957633
v 0.4958641 0.1216680 -0.4959801
v 0.4965944 0.0486098 -0.4948820
v 0.4820468 0.2244557 -0.5000000
v 0.4980779 -0.1825889 -0.1747931
v 0.4993736 -0.2302365 -0.1385866
v 0.4958321 -0.4965650 -0.3056955
v 0.4993180 -0.3464965 -0.0814903
v 0.4959350 -0.4961825 -0.2145375
v 0.4993910 -0.2173556 0.0550278
v 0.4974305 -0.4941078 -0.0514556
v 0.4982536 -0.4384506 0.0211228
v 0.4984671 -0.1719816 0.1064441
v 0.4998500 -0.1177862 -0.1204833
v 0.4993736 -0.2302365 -0.1385866
v 0.4995058 0.0466230 -0.1668159
v 0.4993889 -0.3270327 -0.3293531
v 0.4984462 -0.1803562 -0.3163949
v 0.4997083 -0.0339275 -0.1887195
v 0.4998285 -0.0718599 -0.1407541
v 0.4998500 -0.1177862 -0.1204833
v 0.4980779 -0.1825889 -0.1747931
v 0.4980055 -0.1378043 -0.2128620
v 0.4993736 -0.2302365 -0.1385866
v 0.4985773 0.1625005 -0.1565472
v 0.4991559 -0.1520943 -0.3655781
v 0.4989975 -0.3976728 -0.2931195
v 0.4994739 -0.1447658 0.1349644
v 0.4980055 -0.1378043 -0.2128620
v 0.4997083 -0.0339275 -0.1887195
v 0.4998285 -0.0718599 -0.1407541
v 0.4984462 -0.1803562 -0.3163949
v 0.4989975 -0.3976728 -0.2931195
v 0.4998285 -0.0718599 -0.1407541
v 0.4998500 -0.1177862 -0.1204833
v 0.4990547 -0.2551885 -0.4895873
v 0.4993306 0.0956759 -0.3892528
v 0.4979525 0.0265854 -0.3760879
v 0.4994812 -0.1284481 -0.4025662
v 0.4995814 0.0480282 -0.3363349
v 0.4991559 -0.1520943 -0.3655781
v 0.4962896 -0.1008654 -0.4954838
v 0.4984462 -0.1803562 -0.3163949
v 0.4989325 -0.3587197 -0.4195942
v 0.4978806 -0.3656326 -0.4872101
v 0.4965944 0.0486098 -0.4948820
v 0.4991559 -0.1520943 -0.3655781
v 0.4958321 -0.4965650 -0.3056955
v 0.4901377 -0.4989324 -0.3601521
v 0.4974300 -0.4961298 -0.4054510
v 0.4993889 -0.3270327 -0.3293531
v 0.4980055 -0.1378043 -0.2128620
v 0.4989975 -0.3976728 -0.2931195
v 0.4984462 -0.1803562 -0.3163949
v 0.4974300 -0.4961298 -0.4054510
v 0.4980779 -0.1825889 -0.1747931
v 0.4958321 -0.4965650 -0.3056955
v 0.4989325 -0.3587197 -0.4195942
v 0.4993889 -0.3270327 -0.3293531
v 0.4989975 -0.3976728 -0.2931195
v 0.4959748 -0.4884247 -0.4930524
v 0.4974300 -0.4961298 -0.4054510
v 0.4945615 -0.4344556 -0.4977340
v 0.4945615 -0.4344556 -0.4977340
v 0.4938229 -0.3632906 -0.4977997
v 0.4959748 -0.4884247 -0.4930524
v 0.4978806 -0.3656326 -0.4872101
v 0.4990547 -0.2551885 -0.4895873
v 0.4990547 -0.2551885 -0.4895873
v 0.4994812 -0.1284481 -0.4025662
v 0.4978806 -0.3656326 -0.4872101
v 0.4959748 -0.4884247 -0.4930524
v 0.4974300 -0.4961298 -0.4054510
v 0.4989325 -0.3587197 -0.4195942
v 0.4991559 -0.1520943 -0.3655781
v 0.4978806 -0.3656326 -0.4872101
v -0.0119799 -0.4177495 -0.4966574
v -0.1833306 -0.1685624 -0.4972093
v 0.4990547 -0.2551885 -0.4895873
v 0.0096019 0.0345716 -0.4957633
v -0.0724876 0.1988266 -0.4969413
v 0.4820468 0.2244557 -0.5000000
v 0.4963656 0.2853707 -0.4956407
v -0.4980506 0.4970489 -0.3426165
v 0.4984530 0.4949646 -0.3996899
v 0.4969878 0.4897303 -0.4918632
v 0.4969878 0.4897303 -0.4918632
v -0.4952525 0.4910145 -0.4929271
v 0.4984881 0.4935595 -0.2139515
v 0.4965944 0.0486098 -0.4948820
v 0.4963063 0.4987782 0.0361102
v 0.4963656 0.2853707 -0.4956407
v 0.0096019 0.0345716 -0.4957633
v -0.1833306 -0.1685624 -0.4972093
v 0.4958321 -0.4965650 -0.3056955
v 0.4959350 -0.4961825 -0.2145375
v -0.4951428 -0.4968987 -0.2063123
v 0.4974305 -0.4941078 -0.0514556
v -0.0353715 -0.4980210 -0.3426621
v 0.4974300 -0.4961298 -0.4054510
v 0.4901377 -0.4989324 -0.3601521
v 0.4945615 -0.4344556 -0.4977340
v 0.4974300 -0.4961298 -0.4054510
v -0.0119799 -0.4177495 -0.4966574
v 0.4962896 -0.1008654 -0.4954838
v -0.1833306 -0.1685624 -0.4972093
v 0.4965944 0.0486098 -0.4948820
v 0.4990547 -0.2551885 -0.4895873
v 0.4938229 -0.3632906 -0.4977997
v -0.0119799 -0.4177495 -0.4966574
v 0.4945615 -0.4344556 -0.4977340
v 0.4958321 -0.4965650 -0.3056955
v 0.4990547 -0.2551885 -0.4895873
v 0.4980737 0.1490400 0.4960784
v -0.4944262 0.2620037 0.4982474
v -0.4979871 0.0487758 0.4944299
v 0.4978995 0.2899572 0.4957975
v -0.4970381 0.3725356 0.4966802
v -0.4957587 -0.2645739 0.4983601
v 0.1585424 -0.2425221 0.4999258
v -0.2780339 -0.1114862 0.5000000
v -0.4951900 0.4913580 0.4950117
v 0.4990190 0.4952751 0.4295919
v -0.4951900 0.4913580 0.4950117
v 0.4962592 0.5000000 0.2894760
v -0.4985432 0.4934288 0.2302222
v -0.4944262 0.2620037 0.4982474
v -0.4970381 0.3725356 0.4966802
v -0.4989918 0.2949066 0.4915437
v -0.4970381 0.3725356 0.4966802
v -0.4951900 0.4913580 0.4950117
v -0.4991963 0.3320075 0.3599625
v -0.4994062 0.2386190 0.3432510
v -0.4979871 0.0487758 0.4944299
v -0.4990647 0.2304552 0.4885320
v -0.4993343 0.3243843 0.4212355
v -0.4989918 0.2949066 0.4915437
v -0.4944262 0.2620037 0.4982474
v -0.4970381 0.3725356 0.4966802
v -0.4990647 0.2304552 0.4885320
v -0.4970376 0.4667790 0.4960413
v -0.4970381 0.3725356 0.4966802
v -0.4951900 0.4913580 0.4950117
v -0.4989918 0.2949066 0.4915437
v -0.4990647 0.2304552 0.4885320
v -0.4990647 0.2304552 0.4885320
v -0.4993343 0.3243843 0.4212355
v -0.4985432 0.4934288 0.2302222
v -0.4991963 0.3320075 0.3599625
v -0.4996181 0.3968082 0.2750133
v -0.4951900 0.4913580 0.4950117
v -0.4989918 0.2949066 0.4915437
v -0.4995352 0.3156195 0.2745527
v -0.4994062 0.2386190 0.3432510
v -0.4994062 0.2386190 0.3432510
v -0.4990768 -0.0114522 0.4882539
v -0.4979871 0.0487758 0.4944299
v -0.4992310 -0.0796684 0.4490884
v -0.4995289 0.0414337 0.3482905
v -0.4965382 0.0156269 0.3432510
v -0.4995331 -0.1001920 0.3658234
v -0.4979871 0.0487758 0.4944299
v -0.4944262 0.2620037 0.4982474
v -0.4990647 0.2304552 0.4885320
v -0.4979871 0.0487758 0.4944299
v -0.4990768 -0.0114522 0.4882539
v -0.4943161 -0.1712146 0.4991600
v -0.4995289 0.0414337 0.3482905
v -0.4995053 0.4149157 -0.0487705
v -0.4995080 0.3904673 0.1307077
v -0.4992310 0.4825756 0.0995465
v -0.4995982 0.3243843 0.1482877
v -0.4995273 0.2397275 0.1756130
v -0.4994062 0.2386190 0.3432510
v -0.4995352 0.3156195 0.2745527
v -0.4996181 0.3968082 0.2750133
v -0.4985432 0.4934288 0.2302222
v -0.4985432 0.4934288 0.2302222
v -0.4942909 0.4998360 0.0763267
v -0.4992310 0.4825756 0.0995465
v -0.4990563 0.3552634 -0.0376033
v -0.4993007 0.0480283 0.2875466
v -0.4995331 -0.1001920 0.3658234
v -0.4965382 0.0156269 0.3432510
v -0.4996234 0.1623815 0.1747474
v -0.4987515 -0.1637124 0.3364204
v -0.4992383 0.0918624 0.1803174
v -0.4994062 0.2386190 0.3432510
v -0.4995273 0.2397275 0.1756130
v -0.4995289 0.0414337 0.3482905
v -0.4984861 0.0994368 0.0833798
v -0.4987515 -0.1637124 0.3364204
v -0.4992383 0.0918624 0.1803174
v -0.4995373 -0.0523179 0.1961391
v -0.4996207 0.0328542 0.0802753
v -0.4993285 -0.0968215 0.1691774
v -0.4996968 -0.0130058 0.0149239
v -0.4957587 -0.2645739 0.4983601
v -0.4980018 -0.4864554 0.4849299
v 0.1217779 -0.4760862 0.4988935
v -0.4943161 -0.1712146 0.4991600
v -0.2780339 -0.1114862 0.5000000
v -0.4979871 0.0487758 0.4944299
v -0.4980018 -0.4864554 0.4849299
v -0.4956496 -0.4963639 0.4386828
v 0.1217779 -0.4760862 0.4988935
v -0.4957587 -0.2645739 0.4983601
v -0.4992310 -0.0796684 0.4490884
v -0.4995289 0.0414337 0.3482905
v -0.4957587 -0.2645739 0.4983601
v -0.4990768 -0.0114522 0.4882539
v -0.4988333 -0.2683542 0.4644066
v -0.4995053 -0.2675014 0.4148983
v -0.4995331 -0.1001920 0.3658234
v -0.4990768 -0.0114522 0.4882539
v -0.4957587 -0.2645739 0.4983601
v -0.4943161 -0.1712146 0.4991600
v -0.4987515 -0.1637124 0.3364204
v -0.4984540 -0.3757694 0.3643560
v -0.4990133 -0.2898322 0.3885469
v -0.4993416 -0.2721658 0.3112213
v -0.4993007 0.0480283 0.2875466
v -0.4995331 -0.1001920 0.3658234
v -0.4995373 -0.0523179 0.1961391
v -0.4981372 -0.2740726 0.2861548
v -0.4995053 -0.2675014 0.4148983
v -0.4987515 -0.1637124 0.3364204
v -0.4990133 -0.2898322 0.3885469
v -0.4980018 -0.4864554 0.4849299
v -0.4957587 -0.2645739 0.4983601
v -0.4988333 -0.2683542 0.4644066
v -0.4984540 -0.3757694 0.3643560
v -0.4995053 -0.2675014 0.4148983
v -0.4990133 -0.2898322 0.3885469
v -0.4979121 -0.4920274 0.3362878
v -0.4956496 -0.4963639 0.4386828
v -0.4993416 -0.2721658 0.3112213
v -0.4956496 -0.4963639 0.4386828
v -0.4979121 -0.4920274 0.3362878
v -0.4970439 -0.4941801 0.2602242
v -0.4991087 -0.3879379 0.2541722
v -0.4993285 -0.0968215 0.1691774
v -0.4990904 -0.1409015 0.1327270
v -0.4981372 -0.2740726 0.2861548
v -0.4995373 -0.0523179 0.1961391
v -0.4994943 -0.3553179 0.2073247
v -0.4998936 -0.1825888 0.1009397
v -0.4996160 -0.2283298 0.0758732
v -0.4996968 -0.0130058 0.0149239
v -0.4993285 -0.0968215 0.1691774
v -0.4998936 -0.1825888 0.1009397
v -0.4993375 -0.3619438 0.1635660
v -0.4989881 -0.4331421 0.0346472
v -0.4986801 -0.4862213 0.2179043
v -0.4991087 -0.3879379 0.2541722
v -0.4994943 -0.3553179 0.2073247
v -0.4970439 -0.4941801 0.2602242
v -0.4981372 -0.2740726 0.2861548
v -0.4993285 -0.0968215 0.1691774
v -0.4996160 -0.2283298 0.0758732
v -0.4993416 -0.2721658 0.3112213
v -0.4998936 -0.1825888 0.1009397
v -0.4979121 -0.4920274 0.3362878
v -0.4986801 -0.4862213 0.2179043
v -0.4994943 -0.3553179 0.2073247
v -0.4991087 -0.3879379 0.2541722
v -0.4994943 -0.3553179 0.2073247
v -0.4938109 -0.4971466 0.0370800
v -0.4970439 -0.4941801 0.2602242
v -0.4986801 -0.4862213 0.2179043
v -0.1335603 -0.4974276 0.1261503
v -0.4970439 -0.4941801 0.2602242
v -0.4938109 -0.4971466 0.0370800
v -0.4995273 0.2397275 0.1756130
v -0.4995982 0.3243843 0.1482877
v -0.5000000 0.2367121 -0.1822868
v -0.4990563 0.3552634 -0.0376033
v -0.4995053 0.4149157 -0.0487705
v -0.4992310 0.4825756 0.0995465
v -0.4980511 0.4653425 -0.0493181
v -0.4992310 0.4825756 0.0995465
v -0.4942909 0.4998360 0.0763267
v -0.4995080 0.3904673 0.1307077
v -0.4980511 0.4653425 -0.0493181
v -0.4995053 0.4149157 -0.0487705
v -0.4990563 0.3552634 -0.0376033
v -0.5000000 0.2367121 -0.1822868
v -0.4990563 0.3552634 -0.0376033
v -0.4996842 0.2614864 -0.2157639
v -0.4980511 0.4653425 -0.0493181
v -0.4980506 0.4970489 -0.3426165
v -0.4989624 0.3510673 -0.2532767
v -0.4998468 0.2763346 -0.2785043
v -0.4995053 0.4149157 -0.0487705
v -0.4942909 0.4998360 0.0763267
v -0.4996234 0.1623815 0.1747474
v -0.5000000 0.2367121 -0.1822868
v -0.4992383 0.0918624 0.1803174
v -0.4984861 0.0994368 0.0833798
v -0.4995137 0.1098722 -0.0470621
v -0.4996207 0.0328542 0.0802753
v -0.4996968 -0.0130058 0.0149239
v -0.4974631 0.0546834 -0.0432903
v -0.4995273 0.2397275 0.1756130
v -0.4995053 0.1784748 -0.1490692
v -0.4995137 0.1098722 -0.0470621
v -0.5000000 0.2367121 -0.1822868
v -0.4979651 -0.1024072 -0.2781934
v -0.4998039 0.0477531 -0.1651304
v -0.4974631 0.0546834 -0.0432903
v -0.4996968 -0.0130058 0.0149239
v -0.4985768 0.1795931 -0.4052513
v -0.4994791 0.3463931 -0.3279785
v -0.4985212 0.2044805 -0.4878690
v -0.4983911 0.3116985 -0.3079101
v -0.4989624 0.3510673 -0.2532767
v -0.4985689 0.3704647 -0.4922325
v -0.4980506 0.4970489 -0.3426165
v -0.4952525 0.4910145 -0.4929271
v -0.4998468 0.2763346 -0.2785043
v -0.4994838 0.1768568 -0.3566699
v -0.4985212 0.2044805 -0.4878690
v -0.4985689 0.3704647 -0.4922325
v -0.4947945 0.1979932 -0.4959302
v -0.4995053 0.1784748 -0.1490692
v -0.5000000 0.2367121 -0.1822868
v -0.4992389 -0.0421889 -0.3261089
v -0.4979651 -0.1024072 -0.2781934
v -0.4995116 -0.0947723 -0.4376433
v -0.4996842 0.2614864 -0.2157639
v -0.4994838 0.1768568 -0.3566699
v -0.4998468 0.2763346 -0.2785043
v -0.4990537 -0.1495982 -0.4883751
v -0.4994838 0.1768568 -0.3566699
v -0.4985768 0.1795931 -0.4052513
v -0.4983911 0.3116985 -0.3079101
v -0.4984986 0.0581768 -0.4899851
v -0.4985212 0.2044805 -0.4878690
v -0.4984986 0.0581768 -0.4899851
v -0.4985212 0.2044805 -0.4878690
v -0.4947945 0.1979932 -0.4959302
v -0.4996160 -0.2283298 0.0758732
v -0.4995048 -0.1233699 -0.1260504
v -0.4993049 -0.2283298 -0.1427633
v -0.4979651 -0.1024072 -0.2781934
v -0.4994801 -0.0807575 -0.1580602
v -0.4996968 -0.0130058 0.0149239
v -0.4990904 -0.1409015 0.1327270
v -0.4998936 -0.1825888 0.1009397
v -0.4985133 -0.3443106 -0.0734020
v -0.4974295 -0.2787585 0.0682469
v -0.4994309 -0.1902686 -0.1776594
v -0.4958898 -0.4962255 -0.2538698
v -0.4993049 -0.2283298 -0.1427633
v -0.4994309 -0.1902686 -0.1776594
v -0.4995048 -0.1233699 -0.1260504
v -0.4979850 -0.4923494 -0.1240654
v -0.4985133 -0.3443106 -0.0734020
v -0.1335603 -0.4974276 0.1261503
v -0.4938109 -0.4971466 0.0370800
v -0.4950631 -0.4977028 -0.0494977
v -0.4976221 -0.4608517 -0.0675639
v -0.4950631 -0.4977028 -0.0494977
v -0.4989881 -0.4331421 0.0346472
v -0.4974295 -0.2787585 0.0682469
v -0.4985133 -0.3443106 -0.0734020
v -0.4993375 -0.3619438 0.1635660
v -0.4996160 -0.2283298 0.0758732
v -0.4979850 -0.4923494 -0.1240654
v -0.4938109 -0.4971466 0.0370800
v -0.4986801 -0.4862213 0.2179043
v -0.4979850 -0.4923494 -0.1240654
v -0.4958898 -0.4962255 -0.2538698
v -0.4951428 -0.4968987 -0.2063123
v -0.4989881 -0.4331421 0.0346472
v -0.4938109 -0.4971466 0.0370800
v -0.4984939 -0.4829581 -0.3744408
v -0.4992467 -0.2253496 -0.2986367
v -0.4979651 -0.1024072 -0.2781934
v -0.4994801 -0.0807575 -0.1580602
v -0.4992257 -0.4017674 -0.2917719
v -0.4994309 -0.1902686 -0.1776594
v -0.4992389 -0.0421889 -0.3261089
v -0.4992389 -0.0421889 -0.3261089
v -0.4993705 -0.1398770 -0.4087536
v -0.4991811 -0.3591531 -0.4620567
v -0.4995116 -0.0947723 -0.4376433
v -0.4990537 -0.1495982 -0.4883751
v -0.4993159 -0.2554051 -0.4863801
v -0.4994838 0.1768568 -0.3566699
v -0.4984986 0.0581768 -0.4899851
v -0.4947336 -0.1029712 -0.4965106
v -0.4990537 -0.1495982 -0.4883751
v -0.4940689 -0.2393859 -0.4965719
v -0.4995116 -0.0947723 -0.4376433
v -0.4992389 -0.0421889 -0.3261089
v -0.4991811 -0.3591531 -0.4620567
v -0.4984939 -0.4829581 -0.3744408
v -0.4993159 -0.2554051 -0.4863801
v -0.4956412 -0.4971642 -0.4432118
v -0.4993705 -0.1398770 -0.4087536
v -0.4995116 -0.0947723 -0.4376433
v -0.4993159 -0.2554051 -0.4863801
v -0.4940689 -0.2393859 -0.4965719
v -0.4990537 -0.1495982 -0.4883751
v -0.4991811 -0.3591531 -0.4620567
v -0.4991811 -0.3591531 -0.4620567
v -0.4229047 -0.5000000 -0.2924478
v -0.4950211 -0.4973008 -0.3455113
v -0.3150534 -0.4980425 -0.3454728
v -0.4951428 -0.4968987 -0.2063123
v -0.4956412 -0.4971642 -0.4432118
v -0.4958898 -0.4962255 -0.2538698
v -0.4994309 -0.1902686 -0.1776594
v -0.4992257 -0.4017674 -0.2917719
v -0.4991811 -0.3591531 -0.4620567
v -0.4956412 -0.4971642 -0.4432118
v -0.4984939 -0.4829581 -0.3744408
v -0.4992467 -0.2253496 -0.2986367
v -0.4956412 -0.4971642 -0.4432118
v -0.4950211 -0.4973008 -0.3455113
v -0.4984939 -0.4829581 -0.3744408
v -0.4958898 -0.4962255 -0.2538698
v -0.4958898 -0.4962255 -0.2538698
v -0.4950211 -0.4973008 -0.3455113
v -0.4229047 -0.5000000 -0.2924478
v -0.4951428 -0.4968987 -0.2063123
v -0.4984939 -0.4829581 -0.3744408
v 0.1585424 -0.2425221 0.4999258
v -0.4957587 -0.2645739 0.4983601
v 0.1217779 -0.4760862 0.4988935
v -0.4970439 -0.4941801 0.2602242
v 0.4974804 -0.4928705 0.3378151
v -0.4956496 -0.4963639 0.4386828
v -0.4942909 0.4998360 0.0763267
v -0.4985432 0.4934288 0.2302222
v 0.4962592 0.5000000 0.2894760
v -0.4979871 0.0487758 0.4944299
v -0.2780339 -0.1114862 0.5000000
v 0.4973728 -0.1008497 0.4953027
v -0.1335603 -0.4974276 0.1261503
v 0.4970340 -0.4929154 0.2498970
v -0.4970439 -0.4941801 0.2602242
v -0.4950631 -0.4977028 -0.0494977
v -0.4979850 -0.4923494 -0.1240654
v 0.4974305 -0.4941078 -0.0514556
v -0.4951428 -0.4968987 -0.2063123
v 0.4974300 -0.4961298 -0.4054510
v -0.0353715 -0.4980210 -0.3426621
v -0.4956412 -0.4971642 -0.4432118
v 0.4958321 -0.4965650 -0.3056955
v 0.4974300 -0.4961298 -0.4054510
v -0.4956412 -0.4971642 -0.4432118
v -0.0119799 -0.4177495 -0.4966574
v -0.1335603 -0.4974276 0.1261503
v -0.4951428 -0.4968987 -0.2063123
v -0.0353715 -0.4980210 -0.3426621
v -0.0724876 0.1988266 -0.4969413
v 0.0096019 0.0345716 -0.4957633
v -0.4947945 0.1979932 -0.4959302
v -0.4980506 0.4970489 -0.3426165
v -0.4942909 0.4998360 0.0763267
v 0.4963063 0.4987782 0.0361102
v -0.1739676 -0.2571440 -0.4986638
v -0.1833306 -0.1685624 -0.4972093
v -0.0119799 -0.4177495 -0.4966574
v -0.4952525 0.4910145 -0.4929271
v 0.4963656 0.2853707 -0.4956407
v -0.4952525 0.4910145 -0.4929271
v 0.4969878 0.4897303 -0.4918632
v -0.0724876 0.1988266 -0.4969413
v -0.4980506 0.4970489 -0.3426165
v -0.4985689 0.3704647 -0.4922325
v -0.0724876 0.1988266 -0.4969413
v -0.4947945 0.1979932 -0.4959302
v -0.4984986 0.0581768 -0.4899851
v 0.0096019 0.0345716 -0.4957633
v -0.4947336 -0.1029712 -0.4965106
v -0.1833306 -0.1685624 -0.4972093
v -0.4940689 -0.2393859 -0.4965719
v -0.4952525 0.4910145 -0.4929271
v -0.4947945 0.1979932 -0.4959302
v -0.4947336 -0.1029712 -0.4965106
v -0.1739676 -0.2571440 -0.4986638
v -0.4940689 -0.2393859 -0.4965719
v -0.1833306 -0.1685624 -0.4972093
v -0.3150534 -0.4980425 -0.3454728
v -0.0353715 -0.4980210 -0.3426621
v -0.4951428 -0.4968987 -0.2063123
v -0.4956412 -0.4971642 -0.4432118
v -0.4947336 -0.1029712 -0.4965106
v 0.0096019 0.0345716 -0.4957633
v -0.0119799 -0.4177495 -0.4966574
v -0.4956412 -0.4971642 -0.4432118
v -0.1833306 -0.1685624 -0.4972093
vt 0.9212500 0.0719150
vt 0.9955510 0.0179320
vt 0.9943440 0.1371940
vt 0.9827090 0.0005600
vt 0.9342860 0.0411920
vt 0.8847090 0.0001400
vt 0.9487120 0.4313210
vt 0.9487120 0.3394790
vt 0.9954640 0.3837210
vt 0.9267960 0.3221760
vt 0.9185390 0.4797210
vt 0.8574230 0.4958600
vt 0.6363240 0.2820020
vt 0.8354960 0.2820020
vt 0.6828750 0.3406500
vt 0.6154340 0.7754720
vt 0.5623420 0.6844020
vt 0.6110380 0.5799730
vt 0.5849570 0.5648400
vt 0.5316540 0.7503260
vt 0.5325040 0.6033350
vt 0.2461650 0.9998270
vt 0.1811030 0.9998270
vt 0.2177160 0.9974890
vt 0.6325970 0.6373930
vt 0.5976420 0.2149200
vt 0.6959710 0.2149200
vt 0.6189240 0.2177160
vt 0.9071800 0.8595880
vt 0.8933800 0.8603010
vt 0.9190800 0.7835120
vt 0.9137530 0.9095890
vt 0.8398990 0.8795430
vt 0.9328940 0.8465030
vt 0.1019440 0.9161230
vt 0.9485340 0.7038140
vt 0.9635820 0.6715440
vt 0.8346850 0.9022620
vt 0.9284710 0.7758650
vt 0.0070200 0.8852810
vt 0.0147150 0.9182620
vt 0.9650460 0.7557230
vt 0.9589970 0.7848490
vt 0.9477350 0.7058740
vt 0.9617170 0.7537560
vt 0.4188580 0.0594670
vt 0.4880950 0.0407910
vt 0.5028520 0.0663520
vt 0.5467520 0.0082460
vt 0.4416820 0.0261610
vt 0.3646810 0.0602550
vt 0.4415290 0.0023540
vt 0.9454220 0.7906370
vt 0.6117880 0.4708950
vt 0.6698690 0.6199860
vt 0.6269260 0.5364650
vt 0.9767420 0.5962280
vt 0.9465010 0.5546040
vt 0.9685430 0.5646780
vt 0.6501880 0.6912090
vt 0.6097870 0.5586150
vt 0.1625880 0.6165450
vt 0.1267920 0.5889300
vt 0.1455580 0.4824990
vt 0.1285740 0.4928490
vt 0.1070010 0.5144190
vt 0.0923190 0.6096270
vt 0.0687600 0.4451840
vt 0.0704200 0.5974710
vt 0.6519510 0.9416080
vt 0.6553470 0.9488910
vt 0.5169560 0.9475060
vt 0.0454240 0.9929170
vt 0.1576830 0.9447850
vt 0.0215980 0.9195890
vt 0.9444950 0.1807240
vt 0.9444950 0.2049340
vt 0.7586720 0.1787400
vt 0.9442790 0.1648990
vt 0.2094160 0.9948960
vt 0.2983680 0.9948960
vt 0.2505900 0.9991990
vt 0.0857000 0.0505460
vt 0.1206130 0.0452680
vt 0.1787020 0.2048670
vt 0.0955440 0.1732930
vt 0.0558440 0.0467030
vt 0.0542550 0.1397630
vt 0.0542650 0.1877340
vt 0.2606280 0.9496360
vt 0.3499900 0.9488000
vt 0.3878460 0.9706550
vt 0.3833900 0.9361890
vt 0.3833240 0.9999360
vt 0.3235520 0.9962870
vt 0.8773600 0.7613300
vt 0.8722340 0.8668430
vt 0.8069620 0.8183370
vt 0.2562770 0.9876210
vt 0.9288300 0.6769040
vt 0.2607080 0.9449280
vt 0.9310960 0.7588500
vt 0.9351050 0.3077760
vt 0.9465410 0.3092550
vt 0.9368450 0.4200820
vt 0.7216620 0.1546110
vt 0.8316400 0.1546110
vt 0.8317470 0.1642290
vt 0.5968850 0.1953870
vt 0.5968850 0.2281230
vt 0.4106300 0.2153460
vt 0.9516370 0.3111040
vt 0.9424090 0.9168220
vt 0.8850680 0.9321860
vt 0.8214130 0.9132240
vt 0.2391400 0.4881360
vt 0.2534430 0.3717300
vt 0.2558690 0.4257020
vt 0.2088040 0.4117740
vt 0.2138290 0.4921160
vt 0.1716930 0.5201990
vt 0.1528720 0.5311690
vt 0.1922210 0.3469850
vt 0.1991140 0.5305240
vt 0.1526120 0.4066340
vt 0.9751040 0.4639130
vt 0.9687210 0.5093270
vt 0.9486750 0.5484330
vt 0.5041900 0.2351770
vt 0.5755770 0.2684660
vt 0.4914660 0.2792370
vt 0.6686770 0.3249050
vt 0.5646240 0.3874740
vt 0.4687360 0.3168470
vt 0.6681640 0.2360860
vt 0.1103840 0.2398980
vt 0.1005100 0.2267950
vt 0.1490680 0.2013700
vt 0.8221100 0.4812850
vt 0.8113610 0.4436080
vt 0.9054320 0.3686960
vt 0.0951620 0.3472070
vt 0.7747360 0.3700720
vt 0.6705210 0.3512480
vt 0.7683750 0.4538420
vt 0.7853090 0.3518200
vt 0.8390820 0.3458760
vt 0.9268350 0.2302710
vt 0.7403690 0.2302700
vt 0.9261710 0.2190050
vt 0.5720830 0.9594820
vt 0.5085500 0.9539240
vt 0.6535540 0.9508780
vt 0.7878950 0.2139720
vt 0.6017990 0.2139720
vt 0.7876380 0.2079280
vt 0.7578630 0.1746650
vt 0.5722500 0.1811970
vt 0.9286120 0.4301130
vt 0.9382700 0.4301130
vt 0.9340530 0.6160490
vt 0.9270330 0.4283200
vt 0.9341020 0.2423170
vt 0.7495860 0.1825530
vt 0.8645000 0.1947950
vt 0.2660970 0.2975890
vt 0.2632360 0.4828730
vt 0.9834000 0.8833610
vt 0.9834000 0.8133650
vt 0.7578630 0.1817500
vt 0.9223300 0.4283200
vt 0.6787100 0.1887540
vt 0.9348900 0.4286440
vt 0.2486640 0.2975890
vt 0.9945920 0.8756200
vt 0.3722370 0.9147100
vt 0.3307700 0.9150910
vt 0.2578320 0.8885440
vt 0.1593410 0.2389330
vt 0.1693710 0.3535780
vt 0.1437620 0.2092020
vt 0.3183540 0.9320660
vt 0.3982760 0.9353960
vt 0.2297440 0.9346560
vt 0.1971840 0.1799700
vt 0.2012640 0.3420990
vt 0.1390470 0.2790510
vt 0.9938720 0.2646350
vt 0.9619810 0.3504200
vt 0.9744340 0.3000150
vt 0.9890870 0.9992570
vt 0.9383130 0.9782010
vt 0.9431660 0.9578920
vt 0.9557350 0.2916080
vt 0.9352750 0.2714450
vt 0.9595860 0.8896320
vt 0.9378750 0.4978150
vt 0.9810320 0.2588120
vt 0.9515060 0.6002930
vt 0.9352360 0.6116850
vt 0.9014130 0.9719840
vt 0.9556250 0.7939710
vt 0.9826480 0.8145100
vt 0.9826480 0.8832760
vt 0.9628730 0.8846260
vt 0.0352960 0.6059690
vt 0.0140460 0.5405680
vt 0.0423140 0.6021120
vt 0.2078820 0.8655750
vt 0.2321410 0.6803190
vt 0.2361460 0.8492570
vt 0.2670570 0.7969260
vt 0.9336160 0.8142700
vt 0.9336740 0.8930920
vt 0.2800410 0.8633960
vt 0.2455130 0.5141030
vt 0.2758960 0.5203610
vt 0.2619850 0.6793600
vt 0.0321790 0.6679120
vt 0.0118360 0.7808310
vt 0.2284150 0.6105030
vt 0.2136380 0.4950900
vt 0.2168610 0.6293040
vt 0.0136550 0.6281870
vt 0.3535250 0.9999920
vt 0.2546340 0.9999920
vt 0.3101840 0.9962510
vt 0.4255270 0.2452240
vt 0.4314120 0.3293770
vt 0.3934250 0.2158660
vt 0.3742500 0.2938430
vt 0.4684180 0.2807220
vt 0.3528380 0.4239630
vt 0.9044560 0.0329090
vt 0.8063880 0.0507410
vt 0.9418670 0.0494490
vt 0.8823410 0.0013250
vt 0.9906620 0.5304800
vt 0.9567350 0.5516800
vt 0.9807650 0.4746220
vt 0.6834850 0.0064970
vt 0.8382600 0.0282330
vt 0.7886440 0.0346740
vt 0.5199510 0.4735420
vt 0.4967490 0.3823680
vt 0.6038170 0.4883950
vt 0.5585450 0.5827420
vt 0.4761810 0.5645510
vt 0.5885810 0.5041520
vt 0.8597250 0.0002160
vt 0.4686470 0.3827200
vt 0.5241210 0.4439380
vt 0.5703590 0.4316790
vt 0.3125790 0.6959960
vt 0.3105390 0.5095870
vt 0.3180660 0.5095870
vt 0.2997550 0.5144810
vt 0.1164200 0.7928790
vt 0.0975170 0.8055990
vt 0.0276200 0.7128430
vt 0.0544520 0.8226350
vt 0.0189060 0.7531590
vt 0.0829810 0.8920960
vt 0.0038170 0.8254170
vt 0.0147630 0.8614490
vt 0.1163320 0.1891480
vt 0.0162490 0.2183110
vt 0.0252880 0.2552960
vt 0.0177230 0.1448260
vt 0.0168220 0.0290870
vt 0.0476960 0.0615030
vt 0.0098510 0.1231550
vt 0.0762160 0.6160770
vt 0.0662290 0.6214330
vt 0.0443210 0.6013810
vt 0.0000760 0.0941110
vt 0.0320330 0.6258340
vt 0.5138330 0.9656900
vt 0.6590060 0.9777470
vt 0.8050650 0.1431790
vt 0.3877380 0.9773000
vt 0.7092020 0.1555600
vt 0.6726590 0.1635500
vt 0.6726590 0.1375770
vt 0.6526320 0.9535470
vt 0.0096670 0.5276820
vt 0.5194010 0.9773000
vt 0.5070850 0.9636550
vt 0.2022860 0.3078490
vt 0.2604630 0.1670840
vt 0.2673250 0.1951960
vt 0.2514840 0.2576200
vt 0.2896680 0.1870920
vt 0.2717400 0.2676250
vt 0.1998650 0.2452870
vt 0.9742270 0.4625160
vt 0.9458050 0.5499900
vt 0.2026130 0.3525080
vt 0.2014920 0.1848810
vt 0.9447210 0.4612820
vt 0.0825730 0.1890860
vt 0.0405930 0.2043650
vt 0.0038470 0.1912030
vt 0.3965700 0.9198690
vt 0.2588010 0.8829540
vt 0.4212850 0.8766960
vt 0.7941150 0.4709510
vt 0.6406240 0.5413140
vt 0.8000630 0.6922220
vt 0.6755480 0.5879660
vt 0.6771250 0.4704190
vt 0.7412900 0.5271080
vt 0.7346280 0.5823470
vt 0.9636640 0.3511770
vt 0.9845250 0.2938610
vt 0.9874900 0.3652910
vt 0.0453550 0.0225060
vt 0.0813390 0.0193580
vt 0.0183140 0.0284810
vt 0.0808090 0.0300250
vt 0.1368120 0.0270210
vt 0.8890490 0.9617570
vt 0.8150680 0.9137130
vt 0.9439230 0.9501690
vt 0.6721380 0.0753850
vt 0.6776630 0.1361300
vt 0.7451080 0.1158150
vt 0.8544320 0.1367190
vt 0.7344150 0.0699370
vt 0.2333380 0.9806970
vt 0.2656710 0.9924650
vt 0.1379790 0.9911200
vt 0.8311580 0.0599580
vt 0.8160610 0.0512420
vt 0.9197650 0.0530750
vt 0.9225330 0.0500790
vt 0.2829920 0.6770730
vt 0.2893440 0.8633770
vt 0.2829920 0.8634540
vt 0.6778590 0.1827300
vt 0.4922960 0.1847690
vt 0.3021050 0.8626790
vt 0.8109950 0.1636580
vt 0.3192630 0.8613230
vt 0.6778590 0.1930080
vt 0.7202590 0.1557190
vt 0.6833690 0.1624620
vt 0.5977260 0.2130130
vt 0.5977260 0.2067230
vt 0.7836260 0.2067230
vt 0.5974800 0.1954680
vt 0.9327080 0.1584090
vt 0.8327240 0.1615210
vt 0.8341300 0.1584090
vt 0.9723180 0.2315650
vt 0.9729370 0.2386450
vt 0.8773040 0.2323530
vt 0.2576480 0.9577290
vt 0.1301250 0.9577290
vt 0.2579070 0.9501960
vt 0.2579590 0.9655310
vt 0.9296040 0.0607790
vt 0.8346900 0.0607790
vt 0.9296390 0.0643700
vt 0.8331080 0.1546360
vt 0.9307420 0.0553300
vt 0.4807960 0.2071910
vt 0.2951720 0.2071910
vt 0.2948340 0.1964590
vt 0.2821670 0.8624360
vt 0.2766090 0.6764800
vt 0.2244010 0.9362200
vt 0.3467210 0.9362200
vt 0.2651700 0.9435440
vt 0.2896140 0.4018380
vt 0.2844150 0.2159990
vt 0.9446900 0.6164000
vt 0.9446900 0.8022800
vt 0.9264850 0.6171600
vt 0.2821670 0.6769260
vt 0.2836550 0.4023590
vt 0.6742810 0.2177550
vt 0.7071410 0.2148800
vt 0.7572810 0.2162580
vt 0.0937410 0.4320360
vt 0.0539390 0.4244720
vt 0.0173710 0.3119260
vt 0.9815980 0.6048010
vt 0.9475490 0.5610610
vt 0.9628920 0.6121240
vt 0.9489720 0.6040870
vt 0.9955880 0.6077640
vt 0.9357050 0.6133040
vt 0.1764150 0.9963840
vt 0.2161260 0.9963840
vt 0.1660530 0.9993220
vt 0.9544520 0.6029030
vt 0.0856130 0.3468190
vt 0.5886290 0.7326710
vt 0.5388880 0.7785910
vt 0.4001440 0.8586950
vt 0.4955630 0.7803000
vt 0.4341060 0.8105490
vt 0.5865420 0.8673300
vt 0.5891210 0.7659790
vt 0.4359160 0.7688080
vt 0.4862580 0.7317040
vt 0.0681320 0.5832220
vt 0.0464740 0.4475140
vt 0.0681320 0.4623260
vt 0.0092350 0.4446900
vt 0.0075530 0.5236920
vt 0.9379760 0.2234810
vt 0.9895650 0.2283810
vt 0.9393930 0.4984920
vt 0.9393930 0.4065010
vt 0.9478860 0.4206510
vt 0.0006390 0.0224510
vt 0.0259830 0.0156600
vt 0.0954430 0.0177360
vt 0.9277720 0.2306250
vt 0.1135420 0.6201470
vt 0.1700350 0.6953620
vt 0.1362950 0.6848380
vt 0.1840040 0.7132220
vt 0.1955680 0.7358650
vt 0.1647600 0.8189300
vt 0.1555690 0.7748220
vt 0.1402630 0.7646750
vt 0.1091830 0.7397890
vt 0.0125350 0.5405440
vt 0.0336270 0.6054570
vt 0.0232820 0.5974160
vt 0.2531350 0.6639180
vt 0.4084210 0.6649510
vt 0.4304500 0.5833360
vt 0.4366390 0.6386360
vt 0.3614240 0.7403010
vt 0.4012840 0.5625530
vt 0.3527400 0.7086780
vt 0.4738830 0.7356740
vt 0.3747920 0.7734640
vt 0.4448010 0.6492340
vt 0.9273710 0.2967050
vt 0.7511050 0.2427350
vt 0.8919190 0.2529260
vt 0.8369300 0.2812800
vt 0.9055000 0.3147170
vt 0.8307630 0.3049950
vt 0.9118840 0.3568350
vt 0.7743210 0.8374750
vt 0.7743210 0.8554940
vt 0.5879980 0.8475460
vt 0.9874320 0.6813680
vt 0.9845440 0.7465590
vt 0.9696070 0.6807930
vt 0.9222340 0.4291030
vt 0.9274430 0.4295590
vt 0.9296180 0.6154490
vt 0.9949670 0.6807080
vt 0.4612030 0.4730690
vt 0.4110350 0.5715280
vt 0.4573410 0.3543970
vt 0.5065080 0.4990500
vt 0.4296810 0.3627640
vt 0.3920430 0.3785630
vt 0.3924010 0.4870900
vt 0.0040030 0.8195470
vt 0.0040030 0.6667660
vt 0.0110270 0.7226230
vt 0.1043780 0.3591040
vt 0.1428530 0.4431980
vt 0.0941540 0.4251810
vt 0.1546620 0.3842710
vt 0.5823010 0.8769780
vt 0.5024260 0.8771560
vt 0.1341130 0.2680200
vt 0.1688630 0.3740270
vt 0.4219930 0.8760510
vt 0.4903880 0.9119250
vt 0.4228870 0.9052600
vt 0.6623460 0.9955490
vt 0.6458660 0.8691370
vt 0.6733130 0.8701910
vt 0.7542890 0.9281540
vt 0.7120480 0.8679460
vt 0.7332350 0.8798330
vt 0.7792230 0.9936350
vt 0.6990940 0.9998360
vt 0.7932110 0.8670450
vt 0.5182050 0.9738080
vt 0.5985740 0.9738080
vt 0.6578550 0.9800300
vt 0.8014010 0.6924150
vt 0.7554130 0.5434230
vt 0.7884940 0.5448850
vt 0.0254660 0.0000220
vt 0.1516670 0.0000220
vt 0.0038410 0.3221410
vt 0.0385640 0.4290060
vt 0.0102290 0.4314820
vt 0.8108800 0.4449980
vt 0.1412250 0.0268160
vt 0.8183930 0.5474130
vt 0.0766510 0.2573670
vt 0.0860970 0.3454500
vt 0.0075160 0.2659760
vt 0.7080350 0.7061190
vt 0.6876220 0.7417350
vt 0.6694340 0.6868650
vt 0.7653310 0.6897680
vt 0.8565170 0.7398300
vt 0.1266760 0.1886340
vt 0.7649000 0.6654430
vt 0.3984090 0.9628030
vt 0.6684510 0.6286350
vt 0.6491180 0.7078600
vt 0.0509070 0.2432520
vt 0.5328850 0.9628030
vt 0.5014360 0.9529240
vt 0.7860510 0.2149620
vt 0.8280120 0.2149620
vt 0.8201110 0.2166000
vt 0.8048940 0.8191060
vt 0.6175430 0.8191060
vt 0.6248180 0.7777810
vt 0.4071970 0.8464720
vt 0.3728830 0.8544780
vt 0.2959700 0.6967830
vt 0.3052280 0.7841700
vt 0.9658320 0.7562440
vt 0.9658320 0.6747820
vt 0.9842480 0.7504340
vt 0.0439680 0.9930100
vt 0.0307250 0.9850640
vt 0.9455790 0.7098990
vt 0.0199080 0.9189600
vt 0.9455030 0.6159200
vt 0.9675410 0.6239410
vt 0.3751730 0.2859560
vt 0.3376370 0.3509700
vt 0.3668690 0.2711860
vt 0.3016560 0.3462930
vt 0.2893460 0.2159100
vt 0.3374430 0.2549450
vt 0.3615950 0.2433380
vt 0.3181530 0.3463040
vt 0.2906470 0.4024470
vt 0.3130460 0.1370000
vt 0.4959570 0.1047480
vt 0.3108060 0.1635650
vt 0.3605970 0.1596180
vt 0.4275830 0.1540810
vt 0.3628330 0.1846400
vt 0.3967750 0.2012110
vt 0.4262620 0.1750650
vt 0.3119160 0.1079530
vt 0.1023310 0.9192230
vt 0.1727880 0.9354890
vt 0.0688420 0.9268870
vt 0.1209880 0.7660680
vt 0.1327910 0.8656550
vt 0.1910630 0.9169810
vt 0.2398000 0.9157860
vt 0.6091360 0.1782760
vt 0.5455150 0.0874160
vt 0.6719220 0.1614070
vt 0.5309420 0.1076700
vt 0.4880350 0.0873720
vt 0.6710510 0.0681450
vt 0.5529610 0.0023460
vt 0.6686530 0.0001390
vt 0.5090890 0.1285680
vt 0.5714840 0.1818260
vt 0.1103350 0.4436530
vt 0.0174230 0.4355240
vt 0.1146220 0.4339640
vt 0.9257020 0.6797590
vt 0.8929110 0.6916940
vt 0.8839610 0.5307520
vt 0.9253470 0.5230440
vt 0.8360140 0.4714830
vt 0.8683600 0.6901380
vt 0.8123550 0.6079690
vt 0.8302660 0.6745830
vt 0.8349620 0.7769970
vt 0.6842080 0.7766170
vt 0.6962980 0.7525470
vt 0.6234380 0.7736200
vt 0.7619750 0.7354110
vt 0.7097070 0.7077050
vt 0.9944200 0.2488680
vt 0.9352630 0.2488680
vt 0.9379770 0.2417390
vt 0.2683390 0.0780570
vt 0.3500780 0.0239510
vt 0.3651320 0.0562350
vt 0.4159280 0.0018340
vt 0.3611470 0.0069760
vt 0.2796260 0.0022960
vt 0.2367830 0.0554150
vt 0.2539040 0.0657600
vt 0.3428910 0.1006890
vt 0.2753640 0.0938530
vt 0.3777990 0.0404490
vt 0.7379170 0.3824010
vt 0.5865600 0.4118670
vt 0.5761130 0.3831640
vt 0.5331510 0.4060080
vt 0.7076780 0.4660630
vt 0.6264410 0.4753550
vt 0.6000040 0.2327900
vt 0.4133990 0.2327900
vt 0.4112680 0.2164860
vt 0.8613280 0.1171450
vt 0.8635820 0.1026980
vt 0.9025170 0.1096910
vt 0.9357170 0.1442190
vt 0.8718620 0.1538290
vt 0.9562880 0.1049580
vt 0.9482690 0.1522070
vt 0.8370560 0.1159540
vt 0.8929060 0.0941580
vt 0.9826610 0.9704040
vt 0.8077390 0.2172110
vt 0.7547950 0.2172110
vt 0.7741050 0.2154240
vt 0.9637380 0.8964770
vt 0.9836590 0.8964770
vt 0.5201930 0.7663840
vt 0.5007640 0.6504980
vt 0.5007640 0.5971140
vt 0.4348860 0.5728540
vt 0.4804020 0.7224160
vt 0.4357210 0.6205490
vt 0.5334440 0.5782740
vt 0.0536300 0.1881580
vt 0.0351790 0.1395450
vt 0.0491400 0.0603660
vt 0.0156140 0.1468060
vt 0.2368590 0.8835200
vt 0.2034840 0.8679570
vt 0.3660270 0.8713280
vt 0.9423510 0.2379350
vt 0.8861020 0.2415060
vt 0.8701590 0.2340710
vt 0.8386470 0.2403700
vt 0.2639890 0.8689700
vt 0.8414020 0.0649340
vt 0.6908480 0.0701910
vt 0.6696020 0.0028090
vt 0.6166430 0.9868210
vt 0.5144820 0.9867740
vt 0.0064530 0.8830420
vt 0.0013410 0.8589940
vt 0.0704500 0.8764980
vt 0.6239240 0.9961380
vt 0.6599680 0.9845580
vt 0.5721530 0.9829280
vt 0.0963510 0.9128790
vt 0.3280670 0.6060010
vt 0.3700880 0.5412930
vt 0.3131200 0.7181900
vt 0.3197320 0.5249660
vt 0.4056130 0.5520580
vt 0.2286460 0.0226730
vt 0.2222190 0.1775400
vt 0.1888330 0.0560800
vt 0.9907310 0.3902470
vt 0.9907310 0.4578100
vt 0.9448570 0.4589210
vt 0.1539160 0.1331860
vt 0.1290080 0.9779740
vt 0.1930640 0.9764840
vt 0.1741980 0.9859430
vt 0.2531720 0.9772450
vt 0.7895450 0.9697350
vt 0.8149500 0.9152540
vt 0.9189370 0.9984560
vt 0.7783260 0.9988630
vt 0.1524600 0.0001310
vt 0.1517000 0.0391250
vt 0.0291910 0.0391250
vt 0.1447100 0.0274340
vt 0.7914760 0.8673850
vt 0.6051960 0.8673850
vt 0.7908620 0.8551060
vt 0.9140070 0.2013390
vt 0.9140070 0.2119730
vt 0.7279690 0.2020870
vt 0.2943120 0.8673040
vt 0.3356400 0.8600170
vt 0.4807820 0.8633390
vt 0.2691310 0.7942590
vt 0.2729710 0.6759480
vt 0.2810570 0.8618940
vt 0.2990200 0.6945500
vt 0.2939230 0.6954490
vt 0.2861380 0.5090600
vt 0.2882270 0.6953060
vt 0.5849380 0.1955920
vt 0.4854080 0.2043000
vt 0.3989590 0.2011640
vt 0.7270360 0.1679120
vt 0.6243600 0.1954300
vt 0.8104230 0.1954300
vt 0.7198720 0.2017780
vt 0.3064540 0.6261550
vt 0.9127920 0.1650380
vt 0.8264760 0.1725900
vt 0.0850970 0.1895940
vt 0.1024350 0.1917230
vt 0.0113590 0.2183500
vt 0.5878820 0.8463830
vt 0.5904000 0.8176000
vt 0.7755110 0.8320330
vt 0.1620160 0.9962840
vt 0.1650990 0.9999580
vt 0.1306610 0.9982720
vt 0.2686340 0.6949510
vt 0.2772890 0.5090210
vt 0.6010420 0.2332970
vt 0.7868730 0.2263980
vt 0.2826280 0.6155870
vt 0.6001370 0.2229560
vt 0.1289370 0.2410530
vt 0.0913240 0.3937640
vt 0.1118840 0.2401600
vt 0.2835580 0.5076320
vt 0.2696770 0.3216750
vt 0.2992970 0.5048690
vt 0.0161640 0.3126310
vt 0.0514680 0.4212850
vt 0.1405600 0.2438440
vt 0.2696770 0.5074750
vt 0.0385020 0.4248890
vt 0.7965920 0.0875000
vt 0.9146570 0.0922810
vt 0.7998220 0.0963760
vt 0.0948460 0.6685320
vt 0.0948460 0.7717620
vt 0.0757040 0.6021320
vt 0.1078710 0.6018290
vt 0.6919680 0.2308780
vt 0.8786170 0.2308780
vt 0.7372300 0.0700380
vt 0.9160170 0.0657280
vt 0.8061230 0.2457720
vn -0.8022947 -0.1792267 -0.5693865
vn -0.8022947 -0.1792267 -0.5693865
vn -0.8022947 -0.1792267 -0.5693865
vn 0.1000644 -0.0003774 0.9949809
vn 0.1000644 -0.0003774 0.9949809
vn 0.1000644 -0.0003774 0.9949809
vn 0.3913579 0.5546267 0.7343216
vn 0.3913579 0.5546267 0.7343216
vn 0.3913579 0.5546267 0.7343216
vn 0.9999706 0.0076672 -0.0001448
vn 0.9999706 0.0076672 -0.0001448
vn 0.9999706 0.0076672 -0.0001448
vn 0.9999991 0.0012370 0.0005556
vn 0.9999991 0.0012370 0.0005556
vn 0.9999991 0.0012370 0.0005556
vn 0.9999439 0.0051798 0.0092376
vn 0.9993951 -0.0135064 -0.0320475
vn 0.9999667 -0.0007187 -0.0081309
vn 0.9999584 0.0025054 -0.0087691
vn 0.9997596 -0.0083218 -0.0202844
vn 0.9999789 0.0047850 0.0043883
vn 0.8584953 -0.0067527 0.5127769
vn 0.8584953 -0.0067527 0.5127769
vn 0.8584953 -0.0067527 0.5127769
vn 0.9989718 -0.0335381 -0.0305033
vn 0.9762199 0.2167810 -0.0008636
vn 0.9762199 0.2167810 -0.0008636
vn 0.9762199 0.2167810 -0.0008636
vn 0.9999197 0.0082559 0.0096124
vn 0.9998902 -0.0009486 0.0147900
vn 0.9999865 0.0043458 0.0028622
vn 0.9998738 -0.0032734 0.0155430
vn 0.9998974 -0.0020642 0.0141751
vn 0.9998787 0.0132951 0.0081148
vn 0.9998928 0.0134619 0.0057550
vn 0.9989939 -0.0396195 -0.0210132
vn 0.9989939 -0.0396195 -0.0210132
vn 0.9998675 0.0016243 0.0161975
vn 0.9999562 0.0079119 0.0049955
vn 0.9998928 0.0134619 0.0057550
vn 0.9998928 0.0134619 0.0057550
vn 0.9989939 -0.0396195 -0.0210132
vn 0.9998226 0.0187556 -0.0017372
vn 0.9987797 0.0489555 -0.0065143
vn 0.9939876 0.1083302 -0.0159097
vn 0.9999776 -0.0038177 -0.0055040
vn 0.9999959 0.0022362 0.0017747
vn 0.9999903 0.0005515 -0.0043614
vn 0.9998412 0.0129753 0.0122194
vn 0.9998610 0.0163096 0.0034549
vn 0.9995225 0.0308448 -0.0018338
vn 0.9995927 0.0271923 0.0086569
vn 0.9999942 0.0033393 0.0007010
vn 0.9997469 0.0101375 0.0200828
vn 0.9992117 0.0126160 0.0376415
vn 0.9995364 0.0133335 0.0273718
vn 0.9999888 -0.0010299 0.0046106
vn 0.9999888 -0.0010299 0.0046106
vn 0.9999888 -0.0010299 0.0046106
vn 0.9996064 0.0074117 0.0270591
vn 0.9999920 -0.0037950 0.0012315
vn 0.9998704 0.0118914 -0.0108548
vn 0.9999795 0.0043404 -0.0046987
vn 0.9980530 0.0605605 0.0149234
vn 0.9981658 0.0573997 0.0192416
vn 0.9999957 -0.0029029 0.0004718
vn 0.9999876 0.0034662 0.0035813
vn 0.9999779 0.0059953 0.0028713
vn 0.9999409 0.0091242 0.0059061
vn 0.9660423 -0.2559486 -0.0353906
vn 0.9660423 -0.2559486 -0.0353906
vn 0.9660423 -0.2559486 -0.0353906
vn 0.9999977 -0.0011904 0.0017987
vn 0.9999977 -0.0011904 0.0017987
vn 0.9999977 -0.0011904 0.0017987
vn 0.0042685 0.0093706 0.9999470
vn 0.0049991 0.0206693 0.9997739
vn 0.0044415 0.0120459 0.9999176
vn 0.0035871 -0.0011611 0.9999929
vn 0.8993330 -0.0017845 0.4372607
vn 0.8993330 -0.0017845 0.4372607
vn 0.8993330 -0.0017845 0.4372607
vn 0.9996411 0.0025031 0.0266719
vn 0.9988907 -0.0120372 -0.0455255
vn 0.9997989 0.0005594 -0.0200470
vn 0.9999896 -0.0043398 -0.0014264
vn 0.9969088 0.0101228 0.0779132
vn 0.9999008 -0.0098103 0.0101047
vn 0.9998381 -0.0178915 0.0019346
vn 0.9970569 -0.0105950 0.0759299
vn 0.9966291 -0.0121843 -0.0811292
vn 0.9994375 0.0020263 0.0334756
vn 0.9970088 0.0219058 -0.0741183
vn 0.9960531 -0.0112788 0.0880393
vn 0.9964857 -0.0123865 0.0828426
vn 0.9999792 0.0010129 0.0063685
vn 0.9999965 -0.0026293 -0.0001735
vn 0.9999795 -0.0046018 -0.0044545
vn 0.9970077 -0.0099199 0.0766627
vn 0.9998834 0.0040119 0.0147349
vn 0.9776267 -0.0229615 -0.2090904
vn 0.9998053 0.0052498 0.0190210
vn -0.0289239 -0.9989105 0.0366229
vn -0.0356633 -0.9993196 -0.0094012
vn -0.0339907 -0.9994200 0.0020683
vn 0.0145044 -0.0485476 0.9987156
vn 0.0145044 -0.0485476 0.9987156
vn 0.0145044 -0.0485476 0.9987156
vn 0.0063772 -0.9999718 0.0039652
vn 0.0063772 -0.9999718 0.0039652
vn 0.0063772 -0.9999718 0.0039652
vn -0.0440934 -0.9967309 -0.0676998
vn 0.9995326 0.0110154 0.0285166
vn 0.9995326 0.0110154 0.0285166
vn 0.9995326 0.0110154 0.0285166
vn 0.9999617 0.0069604 0.0053102
vn 0.9999971 -0.0018819 0.0015129
vn 0.9997541 0.0074727 0.0208770
vn 0.9992563 0.0239799 0.0301970
vn 0.9999879 -0.0031306 -0.0037965
vn 0.9999913 -0.0007608 0.0041126
vn 0.9999823 -0.0000570 0.0059453
vn 0.9998956 0.0059137 0.0131859
vn 0.9999956 -0.0024935 0.0016078
vn 0.9999134 0.0026738 0.0128836
vn 0.9770152 -0.2131144 -0.0048519
vn 0.9770152 -0.2131144 -0.0048519
vn 0.9770152 -0.2131144 -0.0048519
vn 0.9992336 -0.0163779 -0.0355534
vn 0.9998302 -0.0105316 -0.0151202
vn 0.9999818 -0.0055546 0.0023642
vn 0.9999655 -0.0042689 0.0071264
vn 0.9999602 -0.0063814 0.0062286
vn 0.9996375 -0.0005067 0.0269174
vn 0.9997540 -0.0167116 -0.0145795
vn 0.9996442 -0.0232130 -0.0131354
vn 0.9996681 -0.0201173 -0.0160903
vn 0.9996043 -0.0090751 -0.0266252
vn 0.9998615 -0.0165882 0.0013814
vn 0.9999375 -0.0107717 0.0029986
vn 0.9999497 -0.0100247 0.0003091
vn 0.9993963 -0.0346731 -0.0021907
vn 0.9999493 0.0100101 0.0011059
vn 0.9997540 0.0221244 -0.0015614
vn 0.9999696 -0.0059209 0.0050668
vn 0.9998715 0.0154306 0.0043479
vn 0.9999261 -0.0102761 -0.0064951
vn 0.0262962 0.3066579 0.9514565
vn 0.0262962 0.3066579 0.9514565
vn 0.0262962 0.3066579 0.9514565
vn 0.0057994 0.0187563 0.9998073
vn 0.0057994 0.0187563 0.9998073
vn 0.0057994 0.0187563 0.9998073
vn 0.0012774 -0.9999991 0.0005049
vn 0.0012774 -0.9999991 0.0005049
vn 0.0012774 -0.9999991 0.0005049
vn 0.0024126 0.0019965 0.9999951
vn 0.0024126 0.0019965 0.9999951
vn -0.0017177 0.9994293 0.0337362
vn -0.0017177 0.9994293 0.0337362
vn -0.0017177 0.9994293 0.0337362
vn -0.0019365 -0.0018114 0.9999965
vn -0.0019278 -0.0030924 0.9999934
vn 0.0182777 -0.9891598 0.1457008
vn 0.0182777 -0.9891598 0.1457008
vn 0.0008721 0.9999880 -0.0048222
vn 0.0008721 0.9999880 -0.0048222
vn 0.0022069 -0.0047674 0.9999862
vn 0.0022069 -0.0047674 0.9999862
vn 0.0024126 0.0019965 0.9999951
vn -0.0019701 0.0031301 0.9999932
vn 0.0182777 -0.9891598 0.1457008
vn -0.0019024 -0.0068224 0.9999749
vn 0.0008721 0.9999880 -0.0048222
vn 0.0022069 -0.0047674 0.9999862
vn 0.9991795 0.0397262 0.0078887
vn 0.9996810 0.0252022 0.0016482
vn 0.9999868 -0.0049785 0.0012793
vn 0.9999566 -0.0086841 0.0033612
vn 0.9999954 0.0027498 0.0013165
vn 0.9999712 -0.0073536 0.0018527
vn 0.9996540 0.0223759 -0.0138278
vn 0.9998427 0.0176472 0.0017571
vn 0.9999895 -0.0025837 -0.0037760
vn 0.9999811 0.0061380 0.0001605
vn 0.9999899 0.0042997 0.0012909
vn 0.9999604 0.0084518 -0.0027934
vn 0.9981753 0.0484555 -0.0360301
vn 0.9999983 -0.0010406 -0.0014920
vn 0.9999840 0.0027347 0.0049500
vn 0.9999062 -0.0025977 0.0134441
vn 0.9990098 -0.0261974 0.0359611
vn 0.9997110 -0.0119332 0.0208699
vn 0.9996775 0.0156595 0.0199940
vn 0.9993928 0.0163385 0.0307746
vn 0.9999366 0.0084826 -0.0074113
vn 0.9976466 0.0594485 -0.0341632
vn 0.9993247 0.0362806 -0.0058270
vn 0.9976466 0.0594485 -0.0341632
vn 0.9976466 0.0594485 -0.0341632
vn 0.9991308 -0.0310017 0.0278671
vn 0.9999690 0.0073527 0.0028156
vn 0.9995869 -0.0051746 0.0282706
vn 0.9985658 0.0490990 -0.0213442
vn 0.9992941 0.0334292 -0.0171379
vn 0.9732027 -0.2022397 0.1094332
vn 0.9732027 -0.2022397 0.1094332
vn 0.9732027 -0.2022397 0.1094332
vn 0.9998171 -0.0189911 0.0022792
vn 0.9999947 -0.0008798 -0.0031359
vn 0.9999870 -0.0044462 -0.0025068
vn 0.9999284 0.0098611 -0.0067827
vn 0.9999996 -0.0004523 0.0007691
vn 0.9999374 -0.0072408 0.0085301
vn 0.9999353 0.0086653 -0.0073653
vn 0.9999959 -0.0017183 0.0022809
vn 0.9998078 -0.0095422 0.0171289
vn 0.9999635 -0.0049667 0.0069528
vn 0.9997031 0.0099805 -0.0222272
vn 0.9997031 0.0099805 -0.0222272
vn 0.9996642 0.0093275 -0.0241771
vn 0.9999436 0.0041933 -0.0097578
vn 0.9983416 0.0224446 -0.0530131
vn 0.9997031 0.0099805 -0.0222272
vn 0.7083916 0.0108884 -0.7057357
vn 0.7083916 0.0108884 -0.7057357
vn 0.7083916 0.0108884 -0.7057357
vn 0.9995275 -0.0180118 0.0249076
vn 0.9999866 0.0012795 -0.0050103
vn 0.9999161 -0.0120888 0.0046541
vn 0.9999334 -0.0017149 -0.0114118
vn 0.9997635 0.0139458 -0.0166843
vn 0.9999998 -0.0006310 -0.0001940
vn 0.9995599 0.0255628 -0.0150532
vn 0.9998127 0.0077603 -0.0177309
vn 0.9992903 0.0351225 -0.0136128
vn 0.9997699 0.0131897 -0.0169149
vn 0.2869367 0.0011070 -0.9579489
vn 0.2869367 0.0011070 -0.9579489
vn 0.2869367 0.0011070 -0.9579489
vn 0.9998545 -0.0109130 0.0131135
vn 0.9997158 -0.0149935 0.0185352
vn 0.9999833 -0.0041059 0.0040693
vn 0.9998082 -0.0058067 -0.0187067
vn 0.9999988 0.0006069 -0.0014046
vn 0.9994504 0.0039258 -0.0329152
vn 0.9998619 -0.0030292 -0.0163394
vn 0.9996229 0.0021148 -0.0273782
vn 0.9991170 0.0078840 -0.0412693
vn 0.9996693 -0.0161223 0.0200350
vn 0.9999989 0.0005822 -0.0013738
vn 0.9999867 -0.0026122 -0.0044542
vn 0.9994691 0.0108469 -0.0307240
vn 0.0046546 -0.0284741 -0.9995837
vn 0.0044667 -0.0274251 -0.9996139
vn 0.0022420 -0.0150055 -0.9998849
vn 0.0064002 -0.0382194 -0.9992489
vn 0.9995618 0.0050134 -0.0291737
vn 0.9998624 -0.0001484 -0.0165888
vn 0.9999359 -0.0101327 -0.0050427
vn 0.9999312 -0.0081119 -0.0084766
vn 0.9999073 -0.0125390 -0.0053143
vn 0.9999999 -0.0005056 -0.0000558
vn 0.9998877 -0.0139173 -0.0055624
vn 0.9999139 -0.0130561 -0.0013278
vn 0.9999754 -0.0050237 0.0048938
vn 0.9999754 -0.0050237 0.0048938
vn 0.9999754 -0.0050237 0.0048938
vn 0.9997994 0.0077247 -0.0184778
vn 0.9999993 -0.0006945 -0.0009610
vn 0.9997779 0.0081431 -0.0194396
vn 0.9999188 0.0046094 -0.0118783
vn 0.9998858 -0.0143656 -0.0046907
vn 0.9996799 -0.0069473 -0.0243288
vn 0.9991512 -0.0238238 0.0336048
vn 0.9976220 -0.0306961 0.0617099
vn 0.9994173 0.0012579 -0.0341108
vn 0.9999215 -0.0056079 0.0112080
vn 0.9999215 -0.0056079 0.0112080
vn 0.9990662 0.0161859 -0.0400599
vn 0.9999980 0.0011729 0.0015962
vn 0.9993302 0.0106552 -0.0350087
vn 0.9998255 -0.0133536 -0.0130645
vn 0.9997965 -0.0069168 -0.0189504
vn 0.9999215 -0.0056079 0.0112080
vn 0.9957533 -0.0410706 0.0823934
vn 0.9999980 0.0011729 0.0015962
vn 0.9999980 0.0011729 0.0015962
vn 0.9994706 0.0106358 -0.0307477
vn 0.9999676 -0.0026842 -0.0075951
vn 0.9999916 0.0025771 -0.0031852
vn 0.9999377 0.0042674 -0.0103095
vn 0.9991978 0.0135727 -0.0376765
vn 0.9999697 -0.0060071 0.0049529
vn 0.9985412 0.0128904 -0.0524343
vn 0.9999190 -0.0042199 0.0120055
vn 0.9999190 -0.0042199 0.0120055
vn 0.9999610 -0.0080494 0.0036471
vn 0.9996847 -0.0019377 -0.0250330
vn 0.9999190 -0.0042199 0.0120055
vn 0.3687379 -0.9295316 0.0018510
vn 0.3687379 -0.9295316 0.0018510
vn 0.3687379 -0.9295316 0.0018510
vn 0.9999351 0.0003006 0.0113862
vn 0.9999351 0.0003006 0.0113862
vn 0.9999351 0.0003006 0.0113862
vn 0.9999514 -0.0004411 -0.0098455
vn 0.9998244 -0.0179581 0.0053628
vn 0.9954311 -0.0427217 0.0853921
vn 0.9990565 -0.0352114 0.0254222
vn 0.9997599 -0.0088687 0.0200395
vn 0.9992122 0.0060742 -0.0392181
vn 0.9985587 -0.0299321 0.0445489
vn -0.9995854 -0.0249254 0.0144126
vn -0.9995854 -0.0249254 0.0144126
vn -0.9995854 -0.0249254 0.0144126
vn 0.9834077 0.0100396 -0.1811312
vn 0.9339240 -0.0085689 -0.3573688
vn 0.9549631 0.0051669 -0.2966795
vn 0.9333042 -0.0063636 -0.3590304
vn 0.9323351 -0.0176846 -0.3611628
vn 0.9998932 -0.0104084 0.0102586
vn 0.9998932 -0.0104084 0.0102586
vn 0.9998932 -0.0104084 0.0102586
vn 0.9997323 -0.0146651 -0.0178973
vn 0.9997637 -0.0139159 -0.0167013
vn 0.9998776 -0.0038789 -0.0151575
vn 0.9998694 0.0030667 -0.0158675
vn 0.9998498 -0.0074097 -0.0156702
vn 0.0119289 0.0059882 -0.9999109
vn 0.0119289 0.0059882 -0.9999109
vn 0.0119289 0.0059882 -0.9999109
vn -0.0050671 -0.0097033 -0.9999401
vn -0.0053882 -0.0027610 -0.9999817
vn -0.0083103 0.0606857 -0.9981223
vn -0.0088958 0.0734591 -0.9972586
vn 0.0035486 0.9998497 -0.0169676
vn 0.0006259 0.9996726 -0.0255809
vn -0.0011578 0.9983918 -0.0566779
vn 0.0010959 0.0184778 -0.9998287
vn 0.0010959 0.0184778 -0.9998287
vn 0.0045018 0.9999598 -0.0077480
vn 0.0016496 0.0055514 -0.9999832
vn 0.0061877 0.9997643 -0.0208107
vn 0.0010959 0.0184778 -0.9998287
vn 0.0016496 0.0055514 -0.9999832
vn 0.0016496 0.0055514 -0.9999832
vn 0.0007575 -0.9999909 0.0041956
vn 0.0007927 -0.9999640 0.0084458
vn 0.0008027 -0.9999531 0.0096484
vn 0.0008281 -0.9999188 0.0127129
vn -0.0018735 -0.9999895 -0.0041814
vn -0.0038065 -0.9980464 -0.0623616
vn -0.0021122 -0.9999333 -0.0113561
vn -0.0286024 -0.8314877 -0.5548064
vn -0.0286024 -0.8314877 -0.5548064
vn -0.0286024 -0.8314877 -0.5548064
vn 0.0041135 -0.0158114 -0.9998665
vn 0.0043107 -0.0177915 -0.9998324
vn 0.0021383 0.0040215 -0.9999896
vn 0.0063289 -0.0380672 -0.9992551
vn -0.0066408 0.0407213 -0.9991485
vn -0.0070568 0.0445888 -0.9989805
vn -0.0021566 -0.0009450 -0.9999972
vn -0.0002862 -0.9990551 0.0434617
vn -0.0104614 0.0762501 -0.9970338
vn 0.0001473 -0.0179029 0.9998397
vn 0.0001473 -0.0179029 0.9998397
vn 0.0001473 -0.0179029 0.9998397
vn 0.0020678 0.0142263 0.9998967
vn 0.0020678 0.0142263 0.9998967
vn -0.0021342 -0.0076767 0.9999683
vn -0.0021342 -0.0076767 0.9999683
vn -0.0021342 -0.0076767 0.9999683
vn 0.0656024 0.0129897 0.9977613
vn 0.0656024 0.0129897 0.9977613
vn -0.0070763 0.9999437 0.0079095
vn -0.0070763 0.9999437 0.0079095
vn -0.0070763 0.9999437 0.0079095
vn 0.0020678 0.0142263 0.9998967
vn 0.0656024 0.0129897 0.9977613
vn -0.9927503 0.0171116 0.1189704
vn -0.9927503 0.0171116 0.1189704
vn -0.9927503 0.0171116 0.1189704
vn -0.9999888 -0.0023080 0.0041311
vn -0.9999502 0.0004632 0.0099677
vn -0.9999924 -0.0037191 0.0011588
vn -0.9999859 0.0008868 0.0052438
vn -0.9999859 0.0008868 0.0052438
vn -0.8563463 -0.0136484 0.5162216
vn -0.8714818 -0.0210964 0.4899739
vn -0.8546470 -0.0128362 0.5190509
vn -0.8728539 -0.0217919 0.4874948
vn 0.4231901 0.0061397 0.9060201
vn 0.4231901 0.0061397 0.9060201
vn 0.4231901 0.0061397 0.9060201
vn -0.9999859 0.0008868 0.0052438
vn -0.9999746 -0.0060530 -0.0037572
vn -0.9999841 -0.0028196 -0.0048893
vn -0.9999948 0.0013845 -0.0029163
vn -0.9997805 0.0168098 0.0125085
vn -0.9999225 0.0086376 0.0089649
vn -0.9997492 0.0151327 0.0165073
vn -0.9997351 0.0191208 0.0128098
vn -0.9997337 0.0191691 0.0128465
vn -0.9999922 0.0000853 0.0039514
vn -0.9999920 0.0015916 0.0036623
vn -0.9999501 0.0039294 0.0091888
vn -0.9999525 0.0038676 0.0089416
vn -0.9994808 0.0151673 0.0284280
vn -0.9999943 0.0005540 0.0033216
vn -0.9999924 0.0007202 0.0038216
vn -0.9390594 -0.0422062 -0.3411542
vn -0.9390594 -0.0422062 -0.3411542
vn -0.9121223 0.0078950 0.4098422
vn -0.9121223 0.0078950 0.4098422
vn -0.9121223 0.0078950 0.4098422
vn -0.9628193 -0.0102627 0.2699511
vn -0.9628193 -0.0102627 0.2699511
vn -0.9628193 -0.0102627 0.2699511
vn -0.9390594 -0.0422062 -0.3411542
vn -0.9999950 0.0031475 0.0004141
vn -0.9999981 0.0017249 -0.0009458
vn -0.9999876 0.0049292 0.0007714
vn -0.9999998 0.0006240 -0.0003136
vn -0.9999996 -0.0006046 0.0007188
vn -0.9999994 -0.0009670 0.0005593
vn -0.9999996 -0.0009282 0.0001096
vn -0.9999947 0.0032246 0.0004872
vn -0.9999060 0.0130607 0.0041777
vn -0.9667931 0.2550529 -0.0160950
vn -0.9667931 0.2550529 -0.0160950
vn -0.9667931 0.2550529 -0.0160950
vn -0.9999959 0.0006168 -0.0028127
vn -0.9967458 0.0537498 0.0600732
vn -0.9965582 0.0399278 0.0726463
vn -0.9995393 0.0095104 0.0288214
vn -0.9998641 0.0024371 0.0163076
vn -0.9999927 -0.0034733 -0.0016128
vn -0.9999597 -0.0059883 -0.0066858
vn -0.9999995 0.0006411 0.0007270
vn -0.9999880 -0.0036878 0.0032357
vn -0.9940561 -0.0714917 -0.0821064
vn -0.9999724 0.0062560 0.0040123
vn -0.9999687 0.0059859 0.0051760
vn -0.9999412 -0.0069772 -0.0083049
vn -0.9997416 0.0158912 0.0162556
vn -0.9999402 0.0080806 0.0073742
vn -0.9999958 -0.0027991 -0.0007961
vn -0.9999978 -0.0009828 0.0018533
vn -0.0214768 -0.0601876 0.9979560
vn -0.0214768 -0.0601876 0.9979560
vn -0.0214768 -0.0601876 0.9979560
vn -0.0049508 0.0038643 0.9999803
vn -0.0074947 0.0130772 0.9998864
vn -0.0097738 0.0213323 0.9997247
vn 0.0116237 -0.9776220 0.2100479
vn 0.0116237 -0.9776220 0.2100479
vn 0.0116237 -0.9776220 0.2100479
vn -0.0015239 -0.0085446 0.9999623
vn -0.9997975 -0.0197734 -0.0037473
vn -0.9999659 -0.0050932 0.0064981
vn -0.9977385 0.0178634 0.0647973
vn -0.9996137 -0.0121047 0.0250185
vn -0.9981382 0.0194292 0.0578151
vn -0.9999099 0.0027558 0.0131362
vn -0.9999993 0.0001725 0.0011546
vn -0.8616291 0.0089660 0.5074592
vn -0.8616291 0.0089660 0.5074592
vn -0.8616291 0.0089660 0.5074592
vn -0.9999668 0.0025182 0.0077447
vn -0.9999975 -0.0011495 0.0019222
vn -0.9999191 -0.0030298 -0.0123522
vn -0.9999844 -0.0055729 -0.0004371
vn -0.9998851 -0.0058246 -0.0139976
vn -0.9998795 -0.0055409 -0.0144988
vn -0.9999965 -0.0018699 -0.0018719
vn -0.9986246 -0.0250103 -0.0460805
vn -0.9998796 -0.0045193 -0.0148413
vn -0.9998617 -0.0049552 -0.0158752
vn -0.9998744 -0.0045600 -0.0151810
vn -0.9992747 -0.0073261 -0.0373697
vn -0.9959605 0.0046411 0.0896719
vn -0.9989046 -0.0052625 0.0464962
vn -0.9999017 -0.0101006 0.0097203
vn -0.9998857 -0.0130209 0.0076816
vn -0.9998494 -0.0016427 -0.0172785
vn -0.9997908 -0.0090845 0.0183248
vn -0.9998848 -0.0105563 -0.0109053
vn -0.9999691 -0.0059113 0.0051783
vn -0.9035201 -0.4285419 0.0018155
vn -0.9035201 -0.4285419 0.0018155
vn -0.9035201 -0.4285419 0.0018155
vn -0.9999783 0.0029663 0.0058828
vn -0.9999909 -0.0037962 -0.0019433
vn -0.9999982 -0.0006191 0.0017929
vn -0.9999827 -0.0056627 0.0016036
vn -0.9999827 -0.0056627 0.0016036
vn -0.9999856 -0.0042990 -0.0032271
vn -0.9999856 -0.0042990 -0.0032271
vn -0.9999856 -0.0042990 -0.0032271
vn -0.9999870 -0.0050901 -0.0003785
vn -0.9999827 -0.0056627 0.0016036
vn -0.9998541 0.0075966 0.0153014
vn -0.9999854 -0.0050545 -0.0019036
vn -0.9999864 -0.0052148 0.0001699
vn -0.9999844 -0.0055484 -0.0005931
vn -0.9990566 -0.0148507 0.0408099
vn -0.9998602 -0.0144120 0.0084828
vn -0.9999135 -0.0075162 0.0107972
vn -0.9999640 0.0019071 -0.0082723
vn -0.9998607 0.0039777 0.0162101
vn -0.9999874 -0.0040361 -0.0029730
vn -0.9991880 -0.0010895 -0.0402761
vn -0.9999212 0.0048278 0.0115913
vn -0.9999071 -0.0077774 -0.0111929
vn -0.9992711 -0.0031403 0.0380440
vn -0.9999810 -0.0055216 -0.0027481
vn -0.9999212 0.0048278 0.0115913
vn -0.9999212 0.0048278 0.0115913
vn -0.9668273 -0.2552102 -0.0106153
vn -0.9668273 -0.2552102 -0.0106153
vn -0.9668273 -0.2552102 -0.0106153
vn -0.0040522 -0.9999042 0.0132342
vn -0.0040522 -0.9999042 0.0132342
vn -0.0040522 -0.9999042 0.0132342
vn -0.9999990 -0.0004092 0.0013241
vn -0.9999983 0.0016579 0.0007759
vn -0.9999826 0.0058826 -0.0003446
vn -0.9999533 0.0095764 -0.0013243
vn -0.9995248 0.0287019 -0.0112443
vn -0.9995248 0.0287019 -0.0112443
vn -0.9995248 0.0287019 -0.0112443
vn -0.9721552 0.2317792 -0.0345363
vn -0.9721552 0.2317792 -0.0345363
vn -0.9999696 -0.0077278 -0.0010673
vn -0.9721552 0.2317792 -0.0345363
vn -0.9999696 -0.0077278 -0.0010673
vn -0.9999696 -0.0077278 -0.0010673
vn -0.9999459 0.0102311 -0.0018608
vn -0.9999808 -0.0042554 0.0045014
vn -0.9999908 0.0040721 0.0013812
vn -0.9984131 0.0562569 0.0025402
vn -0.9998916 0.0146396 0.0015808
vn -0.9999197 0.0119572 -0.0041986
vn -0.9999796 0.0062220 -0.0014747
vn -0.9998781 0.0147691 -0.0050565
vn -0.9969194 0.0779790 0.0084280
vn -0.9999964 -0.0026153 0.0005104
vn -0.9999934 -0.0030015 0.0020606
vn -0.9999386 -0.0108541 -0.0022354
vn -0.9999294 -0.0117020 -0.0020647
vn -0.9999902 -0.0044124 0.0003601
vn -0.9999492 0.0090544 -0.0044337
vn -0.9996813 0.0211968 -0.0137115
vn -0.9995216 -0.0223308 -0.0213983
vn -0.9999984 0.0012268 0.0013103
vn -0.9999386 -0.0081240 -0.0075390
vn -0.9998129 -0.0157538 0.0112237
vn -0.9998599 -0.0138539 -0.0093993
vn -0.9999941 -0.0024944 -0.0023795
vn -0.9999666 -0.0075737 -0.0030692
vn -0.9999163 -0.0096682 0.0086027
vn -0.9996755 0.0221100 -0.0126494
vn -0.9999829 -0.0057854 0.0008117
vn -0.9999955 -0.0020890 0.0021406
vn -0.9999956 -0.0007954 -0.0028498
vn -0.9999923 -0.0038514 -0.0007539
vn -0.9999911 0.0038420 -0.0017405
vn -0.9999674 0.0075351 -0.0029110
vn -0.9998845 0.0130736 -0.0077531
vn -0.9994308 0.0273820 -0.0197046
vn -0.9994636 0.0189066 -0.0267407
vn -0.9994523 0.0181136 -0.0276937
vn -0.9110118 -0.0110990 -0.4122308
vn -0.9110118 -0.0110990 -0.4122308
vn -0.9110118 -0.0110990 -0.4122308
vn -0.9999627 -0.0061098 0.0061103
vn -0.9999988 -0.0002428 -0.0015518
vn -0.9999389 -0.0076609 0.0079687
vn -0.9998592 -0.0112195 0.0124791
vn -0.9999963 -0.0023319 0.0014126
vn -0.9999934 0.0007660 -0.0035511
vn -0.9999990 -0.0000742 -0.0013777
vn -0.9999874 -0.0047938 0.0014570
vn -0.9999481 0.0038323 -0.0094404
vn -0.9997750 0.0111586 -0.0180376
vn -0.9999100 0.0059311 -0.0120346
vn -0.9997348 0.0145547 -0.0178456
vn -0.9999900 0.0021050 -0.0039388
vn -0.9999997 -0.0001439 -0.0007163
vn -0.9058353 0.0059871 -0.4235877
vn -0.9058353 0.0059871 -0.4235877
vn -0.9058353 0.0059871 -0.4235877
vn -0.9998890 -0.0141385 0.0047023
vn -0.9999995 -0.0005758 -0.0008151
vn -0.9999901 -0.0042094 -0.0014228
vn -0.9983130 0.0536271 -0.0222542
vn -0.9994269 0.0310794 -0.0134167
vn -0.9999996 -0.0008333 0.0000988
vn -0.9999642 0.0081860 0.0021560
vn -0.9999642 0.0084469 0.0004911
vn -0.9999100 -0.0131200 0.0028073
vn -0.9984141 -0.0477898 0.0297554
vn -0.9999994 -0.0002520 -0.0011062
vn -0.9998670 -0.0065513 -0.0149370
vn -0.9999639 -0.0069421 -0.0049051
vn -0.9999865 -0.0048932 -0.0017287
vn -0.9999969 -0.0021120 0.0013048
vn -0.9999118 -0.0058435 -0.0119281
vn -0.9999827 -0.0047538 0.0034637
vn -0.0023769 -0.9999763 0.0064581
vn -0.0023769 -0.9999763 0.0064581
vn -0.0023769 -0.9999763 0.0064581
vn -0.9994528 -0.0313465 0.0105632
vn -0.9977583 -0.0646291 0.0173618
vn -0.9997767 -0.0211301 0.0002617
vn -0.9995177 -0.0131806 -0.0281200
vn -0.9999997 0.0004175 -0.0006903
vn -0.9998493 0.0034347 -0.0170160
vn -0.9980648 -0.0355603 -0.0510114
vn -0.9994061 -0.0269659 0.0214532
vn -0.9966789 -0.0800521 0.0149295
vn -0.9964379 -0.0814329 -0.0219122
vn -0.8101567 -0.5861966 0.0044274
vn -0.8101567 -0.5861966 0.0044274
vn -0.8101567 -0.5861966 0.0044274
vn -0.9964379 -0.0814329 -0.0219122
vn -0.9964379 -0.0814329 -0.0219122
vn -0.9999788 0.0028669 -0.0058417
vn -0.9983849 0.0152569 -0.0547249
vn -0.9999878 0.0042706 0.0024935
vn -0.9999440 0.0065076 -0.0083500
vn -0.9999989 -0.0001795 -0.0014719
vn -0.9999989 -0.0001919 -0.0014421
vn -0.9997608 -0.0040464 0.0214914
vn -0.9999936 -0.0014274 0.0032800
vn -0.9999928 -0.0015764 0.0034562
vn -0.9999917 -0.0017552 0.0036676
vn -0.9999947 -0.0011999 0.0030112
vn -0.9999280 0.0025087 -0.0117375
vn -0.9999316 0.0022624 -0.0114713
vn -0.9999007 0.0041205 -0.0134791
vn -0.8800253 -0.0013293 -0.4749250
vn -0.8796091 -0.0015021 -0.4756949
vn -0.8738388 -0.0038697 -0.4862003
vn -0.8734263 -0.0040369 -0.4869395
vn -0.9999056 0.0038527 -0.0131897
vn -0.9999864 -0.0022081 0.0047233
vn -0.9999864 -0.0022081 0.0047233
vn -0.9999864 -0.0022081 0.0047233
vn -0.8172148 -0.0974304 -0.5680381
vn -0.9087437 -0.0867095 -0.4082479
vn -0.9999956 -0.0014868 0.0025632
vn -0.9999970 -0.0014346 0.0019981
vn -0.9999992 -0.0012641 0.0001514
vn -0.8729610 -0.0240308 -0.4871978
vn -0.8848179 -0.0065909 -0.4658904
vn -0.9688148 -0.0577521 -0.2409619
vn -0.9999987 -0.0013336 0.0009046
vn 0.0329382 -0.9990036 0.0301156
vn -0.0041179 -0.9998941 -0.0139574
vn 0.0072231 -0.9999683 -0.0033483
vn 0.0606636 -0.9943876 0.0866786
vn -0.0041210 -0.9999906 -0.0013717
vn -0.9993665 -0.0252173 0.0251117
vn -0.9991212 -0.0206490 0.0364751
vn -0.9997925 -0.0140175 0.0147834
vn -0.9989188 -0.0304218 -0.0351524
vn -0.9989188 -0.0304218 -0.0351524
vn -0.9989188 -0.0304218 -0.0351524
vn -0.9999645 -0.0004465 -0.0084134
vn -0.9745431 -0.2241234 0.0058719
vn -0.9698110 -0.2438170 -0.0044599
vn -0.9738648 -0.2270873 0.0043210
vn -0.9689236 -0.2472802 -0.0062834
vn -0.0541540 -0.9985213 -0.0047560
vn -0.0456927 -0.9988918 0.0112880
vn -0.0490118 -0.9987857 0.0049982
vn -0.0586058 -0.9981938 -0.0132103
vn -0.9998023 -0.0178758 0.0087057
vn -0.0022560 -0.0040649 0.9999892
vn -0.0022560 -0.0040649 0.9999892
vn -0.0022560 -0.0040649 0.9999892
vn 0.0022728 -0.9999223 -0.0122539
vn 0.0022728 -0.9999223 -0.0122539
vn 0.0022728 -0.9999223 -0.0122539
vn -0.0090624 0.9991038 0.0413461
vn -0.0090624 0.9991038 0.0413461
vn -0.0090624 0.9991038 0.0413461
vn 0.0054730 0.0422360 0.9990927
vn 0.0054730 0.0422360 0.9990927
vn 0.0054730 0.0422360 0.9990927
vn 0.0015674 -0.9995937 0.0284616
vn 0.0015674 -0.9995937 0.0284616
vn 0.0015674 -0.9995937 0.0284616
vn 0.0035032 -0.9983537 -0.0572503
vn -0.0013821 -0.9999852 -0.0052699
vn 0.0017932 -0.9999820 -0.0057329
vn -0.0057779 -0.9984680 0.0550288
vn 0.0016532 -0.9998692 -0.0160873
vn 0.0016532 -0.9998692 -0.0160873
vn 0.0016532 -0.9998692 -0.0160873
vn 0.0017558 -0.9998983 0.0141507
vn 0.0288074 -0.6729026 -0.7391700
vn 0.0288074 -0.6729026 -0.7391700
vn 0.0288074 -0.6729026 -0.7391700
vn 0.0036105 -0.9999763 -0.0058645
vn 0.0017558 -0.9998983 0.0141507
vn 0.0017558 -0.9998983 0.0141507
vn -0.0023775 -0.0083593 -0.9999622
vn -0.0023775 -0.0083593 -0.9999622
vn -0.0023775 -0.0083593 -0.9999622
vn 0.0007975 0.9999775 -0.0066597
vn 0.0007975 0.9999775 -0.0066597
vn 0.0007975 0.9999775 -0.0066597
vn 0.0319999 0.0197912 -0.9992919
vn 0.0319999 0.0197912 -0.9992919
vn 0.0319999 0.0197912 -0.9992919
vn 0.0001608 0.0139697 -0.9999024
vn 0.0001608 0.0139697 -0.9999024
vn 0.0013362 0.9991952 -0.0400893
vn 0.0013362 0.9991952 -0.0400893
vn 0.0001608 0.0139697 -0.9999024
vn 0.0013362 0.9991952 -0.0400893
vn -0.0091573 0.0047003 -0.9999470
vn -0.0063801 0.0115937 -0.9999124
vn -0.0024357 0.0213813 -0.9997684
vn -0.0114708 -0.0021405 -0.9999319
vn -0.0112642 0.0023073 -0.9999339
vn -0.0094931 0.0402370 -0.9991451
vn -0.0021514 0.0004388 -0.9999976
vn -0.0021514 0.0004388 -0.9999976
vn -0.0132243 -0.0053971 -0.9998980
vn -0.0133181 -0.0421263 -0.9990235
vn -0.0021514 0.0004388 -0.9999976
vn -0.0069197 -0.0069326 -0.9999520
vn -0.0532736 -0.1387582 -0.9888924
vn -0.0056568 0.0158203 -0.9998588
vn 0.0000855 -0.9999996 -0.0008549
vn 0.0000661 -0.9999994 0.0010789
vn -0.0000056 -0.9999663 0.0082117
vn 0.0001704 -0.9999567 -0.0093004
vn -0.0006203 0.0077073 -0.9999701
vn -0.0006203 0.0077073 -0.9999701
vn -0.0449738 -0.1210815 -0.9916232
vn -0.0747973 -0.2016972 -0.9765877
vn -0.0006203 0.0077073 -0.9999701
usemtl meshy
f 606/606/606 607/607/607 608/608/608
f 615/615/615 616/616/616 617/617/617
f 609/609/609 608/608/608 607/607/607
f 435/435/435 436/436/436 437/437/437
f 617/617/617 618/618/618 619/619/619
f 435/435/435 437/437/437 438/438/438
f 399/399/399 400/400/400 401/401/401
f 482/482/482 483/483/483 484/484/484
f 617/617/617 619/619/619 615/615/615
f 595/595/595 596/596/596 597/597/597
f 637/637/637 638/638/638 639/639/639
f 565/565/565 566/566/566 567/567/567
f 540/540/540 541/541/541 542/542/542
f 382/382/382 383/383/383 384/384/384
f 566/566/566 568/568/568 569/569/569
f 598/598/598 599/599/599 600/600/600
f 630/630/630 631/631/631 632/632/632
f 578/578/578 579/579/579 580/580/580
f 666/666/666 667/667/667 668/668/668
f 596/596/596 601/601/601 600/600/600
f 633/633/633 634/634/634 635/635/635
f 617/617/617 620/620/620 618/618/618
f 485/485/485 486/486/486 487/487/487
f 649/649/649 650/650/650 651/651/651
f 549/549/549 550/550/550 551/551/551
f 385/385/385 386/386/386 387/387/387
f 494/494/494 495/495/495 496/496/496
f 439/439/439 438/438/438 440/440/440
f 505/505/505 506/506/506 507/507/507
f 601/601/601 596/596/596 602/602/602
f 488/488/488 489/489/489 485/485/485
f 607/607/607 610/610/610 611/611/611
f 603/603/603 604/604/604 595/595/595
f 471/471/471 472/472/472 473/473/473
f 586/586/586 587/587/587 588/588/588
f 630/630/630 632/632/632 636/636/636
f 566/566/566 565/565/565 568/568/568
f 552/552/552 550/550/550 553/553/553
f 482/482/482 484/484/484 489/489/489
f 580/580/580 581/581/581 578/578/578
f 508/508/508 509/509/509 510/510/510
f 618/618/618 620/620/620 621/621/621
f 595/595/595 597/597/597 603/603/603
f 474/474/474 472/472/472 471/471/471
f 511/511/511 508/508/508 510/510/510
f 587/587/587 589/589/589 588/588/588
f 570/570/570 571/571/571 572/572/572
f 488/488/488 485/485/485 490/490/490
f 402/402/402 401/401/401 403/403/403
f 422/422/422 423/423/423 424/424/424
f 425/425/425 426/426/426 427/427/427
f 669/669/669 670/670/670 671/671/671
f 527/527/527 528/528/528 529/529/529
f 388/388/388 397/397/397 389/389/389
f 652/652/652 653/653/653 659/659/659
f 668/668/668 672/672/672 681/681/681
f 571/571/571 566/566/566 569/569/569
f 619/619/619 622/622/622 615/615/615
f 444/444/444 445/445/445 446/446/446
f 580/580/580 579/579/579 582/582/582
f 485/485/485 489/489/489 486/486/486
f 404/404/404 401/401/401 405/405/405
f 529/529/529 528/528/528 530/530/530
f 543/543/543 544/544/544 545/545/545
f 634/634/634 633/633/633 631/631/631
f 654/654/654 655/655/655 660/660/660
f 588/588/588 590/590/590 586/586/586
f 606/606/606 610/610/610 607/607/607
f 558/558/558 559/559/559 560/560/560
f 582/582/582 579/579/579 583/583/583
f 408/408/408 409/409/409 410/410/410
f 461/461/461 462/462/462 463/463/463
f 428/428/428 429/429/429 423/423/423
f 497/497/497 498/498/498 503/503/503
f 596/596/596 595/595/595 602/602/602
f 567/567/567 571/571/571 570/570/570
f 666/666/666 668/668/668 681/681/681
f 517/517/517 510/510/510 509/509/509
f 499/499/499 500/500/500 501/501/501
f 508/508/508 511/511/511 512/512/512
f 405/405/405 401/401/401 400/400/400
f 444/444/444 447/447/447 445/445/445
f 599/599/599 596/596/596 600/600/600
f 496/496/496 495/495/495 502/502/502
f 463/463/463 464/464/464 461/461/461
f 656/656/656 660/660/660 655/655/655
f 401/401/401 402/402/402 399/399/399
f 518/518/518 505/505/505 507/507/507
f 552/552/552 551/551/551 550/550/550
f 561/561/561 562/562/562 558/558/558
f 571/571/571 567/567/567 566/566/566
f 582/582/582 583/583/583 584/584/584
f 591/591/591 590/590/590 588/588/588
f 441/441/441 442/442/442 443/443/443
f 402/402/402 406/406/406 407/407/407
f 475/475/475 480/480/480 476/476/476
f 427/427/427 428/428/428 425/425/425
f 554/554/554 552/552/552 553/553/553
f 442/442/442 438/438/438 437/437/437
f 398/398/398 385/385/385 387/387/387
f 474/474/474 477/477/477 478/478/478
f 518/518/518 513/513/513 505/505/505
f 474/474/474 471/471/471 477/477/477
f 402/402/402 403/403/403 406/406/406
f 448/448/448 447/447/447 444/444/444
f 476/476/476 481/481/481 479/479/479
f 596/596/596 599/599/599 605/605/605
f 640/640/640 638/638/638 637/637/637
f 504/504/504 494/494/494 496/496/496
f 558/558/558 562/562/562 559/559/559
f 423/423/423 429/429/429 424/424/424
f 424/424/424 429/429/429 430/430/430
f 648/648/648 641/641/641 642/642/642
f 435/435/435 438/438/438 439/439/439
f 465/465/465 463/463/463 462/462/462
f 514/514/514 511/511/511 510/510/510
f 480/480/480 481/481/481 476/476/476
f 411/411/411 409/409/409 408/408/408
f 519/519/519 515/515/515 520/520/520
f 573/573/573 568/568/568 574/574/574
f 563/563/563 561/561/561 564/564/564
f 633/633/633 632/632/632 631/631/631
f 568/568/568 573/573/573 569/569/569
f 443/443/443 442/442/442 437/437/437
f 617/617/617 616/616/616 623/623/623
f 411/411/411 408/408/408 412/412/412
f 448/448/448 449/449/449 447/447/447
f 462/462/462 466/466/466 465/465/465
f 531/531/531 532/532/532 533/533/533
f 390/390/390 391/391/391 392/392/392
f 615/615/615 622/622/622 616/616/616
f 425/425/425 428/428/428 423/423/423
f 648/648/648 643/643/643 641/641/641
f 555/555/555 554/554/554 556/556/556
f 545/545/545 546/546/546 547/547/547
f 537/537/537 534/534/534 535/535/535
f 449/449/449 448/448/448 450/450/450
f 467/467/467 466/466/466 462/462/462
f 557/557/557 550/550/550 549/549/549
f 541/541/541 547/547/547 546/546/546
f 585/585/585 584/584/584 583/583/583
f 546/546/546 542/542/542 541/541/541
f 545/545/545 547/547/547 543/543/543
f 431/431/431 432/432/432 433/433/433
f 425/425/425 423/423/423 434/434/434
f 559/559/559 561/561/561 563/563/563
f 556/556/556 554/554/554 553/553/553
f 559/559/559 562/562/562 561/561/561
f 538/538/538 539/539/539 536/536/536
f 628/628/628 629/629/629 624/624/624
f 657/657/657 653/653/653 652/652/652
f 658/658/658 657/657/657 652/652/652
f 486/486/486 489/489/489 484/484/484
f 393/393/393 391/391/391 390/390/390
f 421/421/421 413/413/413 414/414/414
f 510/510/510 516/516/516 514/514/514
f 415/415/415 416/416/416 417/417/417
f 468/468/468 469/469/469 470/470/470
f 548/548/548 544/544/544 543/543/543
f 644/644/644 645/645/645 646/646/646
f 625/625/625 626/626/626 627/627/627
f 645/645/645 647/647/647 646/646/646
f 673/673/673 674/674/674 675/675/675
f 418/418/418 419/419/419 420/420/420
f 521/521/521 522/522/522 523/523/523
f 575/575/575 576/576/576 577/577/577
f 592/592/592 593/593/593 594/594/594
f 674/674/674 676/676/676 675/675/675
f 394/394/394 395/395/395 396/396/396
f 451/451/451 452/452/452 453/453/453
f 697/697/697 698/698/698 699/699/699
f 677/677/677 678/678/678 679/679/679
f 454/454/454 460/460/460 455/455/455
f 454/454/454 455/455/455 456/456/456
f 661/661/661 662/662/662 663/663/663
f 726/726/726 727/727/727 728/728/728
f 491/491/491 492/492/492 493/493/493
f 664/664/664 661/661/661 663/663/663
f 680/680/680 677/677/677 679/679/679
f 663/663/663 662/662/662 665/665/665
f 457/457/457 458/458/458 459/459/459
f 729/729/729 735/735/735 730/730/730
f 730/730/730 731/731/731 729/729/729
f 737/737/737 738/738/738 739/739/739
f 524/524/524 525/525/525 526/526/526
f 698/698/698 700/700/700 699/699/699
f 732/732/732 733/733/733 736/736/736
f 367/367/367 368/368/368 369/369/369
f 740/740/740 741/741/741 742/742/742
f 727/727/727 726/726/726 734/734/734
f 743/743/743 741/741/741 740/740/740
f 711/711/711 712/712/712 713/713/713
f 714/714/714 715/715/715 716/716/716
f 744/744/744 745/745/745 748/748/748
f 746/746/746 738/738/738 737/737/737
f 747/747/747 738/738/738 746/746/746
f 612/612/612 613/613/613 614/614/614
f 380/380/380 370/370/370 371/371/371
f 148/148/148 149/149/149 150/150/150
f 372/372/372 373/373/373 374/374/374
f 717/717/717 718/718/718 719/719/719
f 151/151/151 152/152/152 153/153/153
f 724/724/724 720/720/720 721/721/721
f 682/682/682 683/683/683 684/684/684
f 685/685/685 686/686/686 687/687/687
f 375/375/375 381/381/381 376/376/376
f 722/722/722 725/725/725 723/723/723
f 688/688/688 689/689/689 690/690/690
f 701/701/701 702/702/702 703/703/703
f 709/709/709 710/710/710 704/704/704
f 330/330/330 331/331/331 332/332/332
f 348/348/348 349/349/349 350/350/350
f 350/350/350 349/349/349 351/351/351
f 154/154/154 155/155/155 156/156/156
f 705/705/705 706/706/706 707/707/707
f 333/333/333 334/334/334 335/335/335
f 691/691/691 692/692/692 693/693/693
f 377/377/377 378/378/378 379/379/379
f 157/157/157 170/170/170 158/158/158
f 352/352/352 353/353/353 354/354/354
f 696/696/696 694/694/694 695/695/695
f 159/159/159 160/160/160 161/161/161
f 352/352/352 354/354/354 365/365/365
f 336/336/336 335/335/335 334/334/334
f 254/254/254 255/255/255 256/256/256
f 337/337/337 338/338/338 339/339/339
f 162/162/162 171/171/171 163/163/163
f 340/340/340 345/345/345 341/341/341
f 338/338/338 337/337/337 342/342/342
f 355/355/355 356/356/356 357/357/357
f 314/314/314 315/315/315 316/316/316
f 358/358/358 359/359/359 360/360/360
f 346/346/346 343/343/343 347/347/347
f 361/361/361 359/359/359 358/358/358
f 699/699/699 708/708/708 697/697/697
f 1/1/1 2/2/2 3/3/3
f 172/172/172 164/164/164 165/165/165
f 162/162/162 163/163/163 173/173/173
f 174/174/174 166/166/166 167/167/167
f 362/362/362 363/363/363 366/366/366
f 362/362/362 364/364/364 363/363/363
f 168/168/168 169/169/169 175/175/175
f 257/257/257 255/255/255 254/254/254
f 76/76/76 77/77/77 78/78/78
f 342/342/342 337/337/337 344/344/344
f 103/103/103 104/104/104 105/105/105
f 106/106/106 107/107/107 108/108/108
f 109/109/109 110/110/110 111/111/111
f 76/76/76 78/78/78 79/79/79
f 4/4/4 5/5/5 6/6/6
f 112/112/112 105/105/105 104/104/104
f 238/238/238 239/239/239 240/240/240
f 7/7/7 8/8/8 9/9/9
f 176/176/176 177/177/177 178/178/178
f 301/301/301 302/302/302 303/303/303
f 126/126/126 127/127/127 128/128/128
f 317/317/317 318/318/318 319/319/319
f 80/80/80 81/81/81 82/82/82
f 225/225/225 226/226/226 227/227/227
f 318/318/318 320/320/320 319/319/319
f 321/321/321 320/320/320 318/318/318
f 26/26/26 27/27/27 28/28/28
f 43/43/43 44/44/44 45/45/45
f 90/90/90 91/91/91 92/92/92
f 92/92/92 91/91/91 93/93/93
f 202/202/202 203/203/203 204/204/204
f 269/269/269 270/270/270 271/271/271
f 270/270/270 269/269/269 272/272/272
f 204/204/204 205/205/205 202/202/202
f 206/206/206 207/207/207 208/208/208
f 179/179/179 180/180/180 181/181/181
f 46/46/46 47/47/47 48/48/48
f 49/49/49 47/47/47 50/50/50
f 46/46/46 50/50/50 47/47/47
f 182/182/182 177/177/177 183/183/183
f 62/62/62 63/63/63 64/64/64
f 65/65/65 63/63/63 66/66/66
f 273/273/273 274/274/274 275/275/275
f 180/180/180 187/187/187 181/181/181
f 63/63/63 67/67/67 66/66/66
f 129/129/129 130/130/130 131/131/131
f 241/241/241 242/242/242 243/243/243
f 289/289/289 290/290/290 291/291/291
f 29/29/29 30/30/30 31/31/31
f 32/32/32 33/33/33 30/30/30
f 83/83/83 84/84/84 85/85/85
f 83/83/83 86/86/86 87/87/87
f 188/188/188 189/189/189 190/190/190
f 191/191/191 192/192/192 193/193/193
f 50/50/50 51/51/51 52/52/52
f 54/54/54 55/55/55 56/56/56
f 252/252/252 244/244/244 245/245/245
f 68/68/68 66/66/66 69/69/69
f 216/216/216 217/217/217 218/218/218
f 132/132/132 133/133/133 134/134/134
f 209/209/209 210/210/210 211/211/211
f 29/29/29 39/39/39 34/34/34
f 16/16/16 17/17/17 18/18/18
f 292/292/292 289/289/289 291/291/291
f 253/253/253 246/246/246 252/252/252
f 292/292/292 293/293/293 294/294/294
f 177/177/177 182/182/182 184/184/184
f 322/322/322 323/323/323 324/324/324
f 194/194/194 190/190/190 189/189/189
f 70/70/70 71/71/71 72/72/72
f 272/272/272 276/276/276 270/270/270
f 247/247/247 248/248/248 249/249/249
f 282/282/282 283/283/283 284/284/284
f 57/57/57 58/58/58 59/59/59
f 198/198/198 190/190/190 194/194/194
f 290/290/290 289/289/289 295/295/295
f 224/224/224 219/219/219 220/220/220
f 249/249/249 244/244/244 246/246/246
f 215/215/215 211/211/211 212/212/212
f 202/202/202 205/205/205 213/213/213
f 130/130/130 132/132/132 131/131/131
f 49/49/49 50/50/50 52/52/52
f 129/129/129 135/135/135 130/130/130
f 94/94/94 95/95/95 92/92/92
f 113/113/113 114/114/114 115/115/115
f 304/304/304 305/305/305 306/306/306
f 53/53/53 44/44/44 43/43/43
f 274/274/274 277/277/277 275/275/275
f 278/278/278 285/285/285 279/279/279
f 67/67/67 69/69/69 66/66/66
f 216/216/216 218/218/218 221/221/221
f 10/10/10 11/11/11 12/12/12
f 19/19/19 20/20/20 21/21/21
f 325/325/325 329/329/329 326/326/326
f 131/131/131 132/132/132 134/134/134
f 40/40/40 35/35/35 41/41/41
f 136/136/136 137/137/137 138/138/138
f 222/222/222 221/221/221 223/223/223
f 178/178/178 177/177/177 184/184/184
f 13/13/13 14/14/14 15/15/15
f 198/198/198 194/194/194 195/195/195
f 96/96/96 97/97/97 98/98/98
f 116/116/116 117/117/117 118/118/118
f 228/228/228 229/229/229 230/230/230
f 191/191/191 193/193/193 196/196/196
f 199/199/199 200/200/200 197/197/197
f 99/99/99 90/90/90 95/95/95
f 119/119/119 116/116/116 120/120/120
f 296/296/296 297/297/297 300/300/300
f 36/36/36 37/37/37 42/42/42
f 121/121/121 122/122/122 123/123/123
f 32/32/32 38/38/38 33/33/33
f 123/123/123 120/120/120 124/124/124
f 185/185/185 186/186/186 179/179/179
f 18/18/18 17/17/17 19/19/19
f 122/122/122 125/125/125 123/123/123
f 242/242/242 241/241/241 250/250/250
f 60/60/60 61/61/61 56/56/56
f 96/96/96 100/100/100 97/97/97
f 244/244/244 252/252/252 246/246/246
f 244/244/244 249/249/249 248/248/248
f 22/22/22 23/23/23 24/24/24
f 231/231/231 230/230/230 229/229/229
f 329/329/329 327/327/327 326/326/326
f 139/139/139 140/140/140 141/141/141
f 119/119/119 117/117/117 116/116/116
f 136/136/136 142/142/142 137/137/137
f 258/258/258 259/259/259 260/260/260
f 284/284/284 280/280/280 282/282/282
f 73/73/73 75/75/75 74/74/74
f 146/146/146 147/147/147 143/143/143
f 307/307/307 312/312/312 308/308/308
f 210/210/210 212/212/212 211/211/211
f 313/313/313 309/309/309 310/310/310
f 97/97/97 100/100/100 102/102/102
f 313/313/313 310/310/310 308/308/308
f 222/222/222 216/216/216 221/221/221
f 312/312/312 313/313/313 308/308/308
f 245/245/245 244/244/244 251/251/251
f 261/261/261 262/262/262 259/259/259
f 294/294/294 298/298/298 292/292/292
f 87/87/87 86/86/86 88/88/88
f 20/20/20 19/19/19 17/17/17
f 86/86/86 89/89/89 88/88/88
f 229/229/229 228/228/228 232/232/232
f 273/273/273 275/275/275 286/286/286
f 123/123/123 124/124/124 121/121/121
f 260/260/260 259/259/259 262/262/262
f 308/308/308 311/311/311 307/307/307
f 233/233/233 231/231/231 229/229/229
f 146/146/146 143/143/143 144/144/144
f 60/60/60 56/56/56 55/55/55
f 143/143/143 140/140/140 145/145/145
f 328/328/328 327/327/327 329/329/329
f 141/141/141 140/140/140 143/143/143
f 261/261/261 259/259/259 263/263/263
f 295/295/295 299/299/299 290/290/290
f 264/264/264 261/261/261 265/265/265
f 234/234/234 235/235/235 237/237/237
f 213/213/213 205/205/205 214/214/214
f 201/201/201 193/193/193 192/192/192
f 262/262/262 261/261/261 264/264/264
f 143/143/143 147/147/147 141/141/141
f 234/234/234 237/237/237 236/236/236
f 266/266/266 268/268/268 267/267/267
f 29/29/29 31/31/31 39/39/39
f 291/291/291 293/293/293 292/292/292
f 56/56/56 61/61/61 54/54/54
f 198/198/198 188/188/188 190/190/190
f 179/179/179 186/186/186 180/180/180
f 95/95/95 90/90/90 92/92/92
f 287/287/287 281/281/281 288/288/288
f 29/29/29 32/32/32 30/30/30
f 18/18/18 25/25/25 16/16/16
f 63/63/63 65/65/65 64/64/64
f 120/120/120 123/123/123 119/119/119
f 91/91/91 101/101/101 93/93/93
f 86/86/86 83/83/83 85/85/85
